<?xml version="1.0" encoding="UTF-8" standalone="no"?>
<!-- Created with Inkscape (http://www.inkscape.org/) -->

<svg
   xmlns:dc="http://purl.org/dc/elements/1.1/"
   xmlns:cc="http://creativecommons.org/ns#"
   xmlns:rdf="http://www.w3.org/1999/02/22-rdf-syntax-ns#"
   xmlns:svg="http://www.w3.org/2000/svg"
   xmlns="http://www.w3.org/2000/svg"
   xmlns:sodipodi="http://sodipodi.sourceforge.net/DTD/sodipodi-0.dtd"
   xmlns:inkscape="http://www.inkscape.org/namespaces/inkscape"
   id="svg2"
   version="1.1"
   inkscape:version="0.48.3.1 r9886"
   width="765"
   height="990"
   xml:space="preserve"
   sodipodi:docname="drawing-2-replacement-sheet.svg"><metadata
     id="metadata8"><rdf:RDF><cc:Work
         rdf:about=""><dc:format>image/svg+xml</dc:format><dc:type
           rdf:resource="http://purl.org/dc/dcmitype/StillImage" /><dc:title /></cc:Work></rdf:RDF></metadata><defs
     id="defs6"><clipPath
       clipPathUnits="userSpaceOnUse"
       id="clipPath3234"><path
         inkscape:connector-curvature="0"
         d="M 0,792 612,792 612,0 0,0 0,792 z"
         id="path3236" /></clipPath><clipPath
       clipPathUnits="userSpaceOnUse"
       id="clipPath6551"><path
         inkscape:connector-curvature="0"
         d="m 532.5,2849.17 3175,0 0,-2504.17 -3175,0 0,2504.17 z"
         id="path6553" /></clipPath><clipPath
       clipPathUnits="userSpaceOnUse"
       id="clipPath6950"><path
         inkscape:connector-curvature="0"
         d="m 532.5,2849.17 3175,0 0,-2504.17 -3175,0 0,2504.17 z"
         id="path6952" /></clipPath><marker
       inkscape:stockid="Arrow1Lend"
       orient="auto"
       refY="0"
       refX="0"
       id="Arrow1Lend"
       style="overflow:visible"><path
         inkscape:connector-curvature="0"
         id="path7291"
         d="M 0,0 5,-5 -12.5,0 5,5 0,0 z"
         style="fill-rule:evenodd;stroke:#000000;stroke-width:1pt;marker-start:none"
         transform="matrix(-0.8,0,0,-0.8,-10,0)" /></marker><marker
       inkscape:stockid="Arrow1Lend"
       orient="auto"
       refY="0"
       refX="0"
       id="marker3395"
       style="overflow:visible"><path
         inkscape:connector-curvature="0"
         id="path3397"
         d="M 0,0 5,-5 -12.5,0 5,5 0,0 z"
         style="fill-rule:evenodd;stroke:#000000;stroke-width:1pt;marker-start:none"
         transform="matrix(-0.8,0,0,-0.8,-10,0)" /></marker></defs><sodipodi:namedview
     pagecolor="#ffffff"
     bordercolor="#666666"
     borderopacity="1"
     objecttolerance="10"
     gridtolerance="10"
     guidetolerance="10"
     inkscape:pageopacity="0"
     inkscape:pageshadow="2"
     inkscape:window-width="1366"
     inkscape:window-height="695"
     id="namedview4"
     showgrid="false"
     units="cm"
     inkscape:zoom="0.95353535"
     inkscape:cx="566.81726"
     inkscape:cy="701.33307"
     inkscape:window-x="0"
     inkscape:window-y="24"
     inkscape:window-maximized="1"
     inkscape:current-layer="g10" /><g
     id="g10"
     inkscape:groupmode="layer"
     inkscape:label="patent"
     transform="matrix(1.25,0,0,-1.25,0,990.00072)"><g
   id="g14"><text
   id="text16"
   transform="matrix(1,0,0,-1,126,764.88)"><tspan
     id="tspan18"
     sodipodi:role="line"
     y="0"
     x="0 6.9601798 10.320189 13.680196 17.040205 25.200083 31.200094 38.160114 42.120125 47.640217 53.520306 58.800327 64.800323 68.160347 71.520355 77.52037 83.520378"
     style="font-size:11.9552002px;font-variant:normal;font-weight:normal;writing-mode:lr-tb;fill:#000000;fill-opacity:1;fill-rule:nonzero;stroke:none;font-family:Times New Roman;-inkscape-font-specification:Times-Roman">TitleofInvention:  Digital aerophones and dynamic impulse response systems</tspan><tspan
     id="tspan20"
     sodipodi:role="line"
     y="14.4"
     x="0 8.640028 13.920036 23.280056 31.560085 37.560097 44.520115 48.480129 54.000217 59.88031 65.160332 71.160332 74.520348 80.520363 84.480377"
     style="font-size:11.9552002px;font-variant:normal;font-weight:normal;writing-mode:lr-tb;fill:#000000;fill-opacity:1;fill-rule:nonzero;stroke:none;font-family:Times New Roman;-inkscape-font-specification:Times-Roman">NameofInventor:  Vladimir Vassilev</tspan><tspan
     id="tspan22"
     sodipodi:role="line"
     style="font-size:11.9552002px;font-variant:normal;font-weight:normal;writing-mode:lr-tb;fill:#000000;fill-opacity:1;fill-rule:nonzero;stroke:none;font-family:Times New Roman;-inkscape-font-specification:Times-Roman"
     x="0"
     y="-2.0664658e+11" /></text>

<text
   style="font-size:12px"
   y="-735.57281"
   x="126"
   id="text16-60"
   transform="scale(1,-1)"><tspan
     id="tspan20-7"
     sodipodi:role="line"
     y="-735.57281"
     x="126"
     style="font-size:11.9552002px;font-variant:normal;font-weight:normal;writing-mode:lr-tb;fill:#000000;fill-opacity:1;fill-rule:nonzero;stroke:none;font-family:Times New Roman;-inkscape-font-specification:Times-Roman">Replacement Sheet</tspan><tspan
     id="tspan22-3"
     sodipodi:role="line"
     style="font-size:11.9552002px;font-variant:normal;font-weight:normal;writing-mode:lr-tb;fill:#000000;fill-opacity:1;fill-rule:nonzero;stroke:none;font-family:Times New Roman;-inkscape-font-specification:Times-Roman"
     x="126"
     y="-720.62878" /></text>
</g><g
   transform="matrix(0.6,0,0,-57.72,539.988,752.028)"
   id="g24"><rect
     id="rect26"
     style="fill:#000000;fill-opacity:1;fill-rule:nonzero"
     transform="matrix(1,0,0,-1,0,1)"
     height="1"
     width="1"
     y="0"
     x="0" /></g><g
   transform="matrix(57.72,0,0,-0.6,511.668,723.708)"
   id="g28"><rect
     id="rect30"
     style="fill:#000000;fill-opacity:1;fill-rule:nonzero"
     transform="matrix(1,0,0,-1,0,1)"
     height="1"
     width="1"
     y="0"
     x="0" /></g><g
   id="g32"
   transform="translate(0,-9.6)"><text
   id="text34"
   transform="matrix(1,0,0,-1,291,705.84)"><tspan
     id="tspan36"
     sodipodi:role="line"
     x="0"
     style="font-size:11.9552002px;font-variant:normal;font-weight:normal;writing-mode:lr-tb;fill:#000000;fill-opacity:1;fill-rule:nonzero;stroke:none;font-family:Times New Roman;-inkscape-font-specification:Times-Roman"
     y="0">2 — 2</tspan></text>

</g><g
   transform="matrix(0.6,0,0,-57.72,71.988,96.4681)"
   id="g38"><rect
     id="rect40"
     style="fill:#000000;fill-opacity:1;fill-rule:nonzero"
     transform="matrix(1,0,0,-1,0,1)"
     height="1"
     width="1"
     y="0"
     x="0" /></g><g
   transform="matrix(57.72,0,0,-0.6,43.668,68.1481)"
   id="g42"><rect
     id="rect44"
     style="fill:#000000;fill-opacity:1;fill-rule:nonzero"
     transform="matrix(1,0,0,-1,0,1)"
     height="1"
     width="1"
     y="0"
     x="0" /></g><g
   id="g3202"
   transform="matrix(0.46817271,0,0,0.49879501,396.15781,432.069)"
   style="fill:#ffffff;fill-opacity:1;stroke:#000000;stroke-opacity:1;display:inline" /><g
   id="g3088"
   transform="matrix(0.46817271,0,0,0.49879501,120.07764,536.27149)"
   style="fill:#ffffff;fill-opacity:1;stroke:#000000;stroke-width:1.00004685;stroke-miterlimit:4;stroke-opacity:1;stroke-dasharray:2.00009371, 1.00004685;stroke-dashoffset:0;display:inline" /><rect
   style="fill:#ffffff;stroke:none"
   x="330.86075"
   y="-622.9621"
   width="134.53561"
   height="32.87991"
   id="rect4"
   transform="scale(1,-1)" /><rect
   style="fill:none;stroke:#000000;stroke-width:1.47841334"
   x="330.86075"
   y="-622.9621"
   width="134.53561"
   height="32.87991"
   id="rect6"
   transform="scale(1,-1)" /><text
   style="font-size:7.24422503px;font-style:normal;font-weight:400;text-anchor:middle;fill:#000000;font-family:monospace"
   x="398.12891"
   y="-608.16327"
   font-size="0.49"
   font-style="normal"
   font-weight="400"
   id="text8"
   transform="scale(1,-1)">RESONATOR</text>

<text
   style="font-size:7.24422503px;font-style:normal;font-weight:400;text-anchor:middle;fill:#000000;font-family:monospace"
   x="398.12891"
   y="-600.85986"
   font-size="0.49"
   font-style="normal"
   font-weight="400"
   id="text10"
   transform="scale(1,-1)">LINEAR DYNAMIC SYSTEM</text>

<rect
   style="fill:#ffffff;stroke:none"
   x="151.86885"
   y="-622.88824"
   width="157.40666"
   height="32.820774"
   id="rect12"
   transform="scale(1,-1)" /><rect
   style="fill:none;stroke:#000000;stroke-width:1.47841334"
   x="151.86885"
   y="-622.88824"
   width="157.40666"
   height="32.820774"
   id="rect14"
   transform="scale(1,-1)" /><text
   style="font-size:7.24422503px;font-style:normal;font-weight:400;text-anchor:middle;fill:#000000;font-family:monospace"
   x="230.5797"
   y="-608.11896"
   font-size="0.49"
   font-style="normal"
   font-weight="400"
   id="text16-6"
   transform="scale(1,-1)">EXCITER</text>

<text
   style="font-size:7.24422503px;font-style:normal;font-weight:400;text-anchor:middle;fill:#000000;font-family:monospace"
   x="230.5797"
   y="-600.81555"
   font-size="0.49"
   font-style="normal"
   font-weight="400"
   id="text18"
   transform="scale(1,-1)">NON-LINEAR DYNAMIC SYSTEM</text>

<line
   style="stroke:#000000;stroke-width:1.47841334"
   x1="309.27588"
   y1="606.49261"
   x2="323.67566"
   y2="606.50745"
   id="line20" /><polygon
   style="fill:#000000;stroke:none"
   transform="matrix(14.784133,0,0,-14.784133,71.76843,698.40424)"
   points="16.913,5.966 17.414,6.215 16.914,6.466 17.039,6.216 "
   id="polygon22" /><polygon
   style="fill:none;stroke:#000000;stroke-width:0.1"
   transform="matrix(14.784133,0,0,-14.784133,71.76843,698.40424)"
   points="16.913,5.966 17.414,6.215 16.914,6.466 17.039,6.216 "
   id="polygon24" /><text
   style="font-size:7.24422503px;font-style:normal;font-weight:400;text-anchor:start;fill:#000000;font-family:sans"
   x="366.32803"
   y="-560.67664"
   font-size="0.49"
   font-style="normal"
   font-weight="400"
   id="text26"
   transform="scale(1,-1)">MODULATING ACTIONS</text>

<line
   style="stroke:#000000;stroke-width:1.47841334"
   x1="398.38019"
   y1="571.27686"
   x2="398.23236"
   y2="582.88239"
   id="line28" /><polygon
   style="fill:#000000;stroke:none"
   transform="matrix(14.784133,0,0,-14.784133,71.76843,698.40424)"
   points="21.834,7.942 22.077,7.439 22.333,7.936 22.082,7.814 "
   id="polygon30" /><polygon
   style="fill:none;stroke:#000000;stroke-width:0.1"
   transform="matrix(14.784133,0,0,-14.784133,71.76843,698.40424)"
   points="21.834,7.942 22.077,7.439 22.333,7.936 22.082,7.814 "
   id="polygon32" /><line
   style="stroke:#000000;stroke-width:1.47841334"
   x1="230.5797"
   y1="572.63702"
   x2="230.5797"
   y2="582.88239"
   id="line34" /><polygon
   style="fill:#000000;stroke:none"
   transform="matrix(14.784133,0,0,-14.784133,71.76843,698.40424)"
   points="10.492,7.939 10.742,7.439 10.992,7.939 10.742,7.814 "
   id="polygon36" /><polygon
   style="fill:none;stroke:#000000;stroke-width:0.1"
   transform="matrix(14.784133,0,0,-14.784133,71.76843,698.40424)"
   points="10.492,7.939 10.742,7.439 10.992,7.939 10.742,7.814 "
   id="polygon38" /><text
   style="font-size:7.24422503px;font-style:normal;font-weight:400;text-anchor:start;fill:#000000;font-family:sans"
   x="204.02731"
   y="-560.67664"
   font-size="0.49"
   font-style="normal"
   font-weight="400"
   id="text40"
   transform="scale(1,-1)">EXCITING ACTIONS</text>

<line
   style="stroke:#000000;stroke-width:1.47841334"
   x1="465.39685"
   y1="606.52216"
   x2="491.09177"
   y2="606.43347"
   id="line42" /><polygon
   style="fill:#000000;stroke:none"
   transform="matrix(14.784133,0,0,-14.784133,71.76843,698.40424)"
   points="28.239,5.971 28.738,6.223 28.237,6.471 28.363,6.221 "
   id="polygon44" /><polygon
   style="fill:none;stroke:#000000;stroke-width:0.1"
   transform="matrix(14.784133,0,0,-14.784133,71.76843,698.40424)"
   points="28.239,5.971 28.738,6.223 28.237,6.471 28.363,6.221 "
   id="polygon46" /><polyline
   style="fill:none;stroke:#000000;stroke-width:0.1"
   transform="matrix(14.784133,0,0,-14.784133,71.76843,698.40424)"
   points="27.738,6.219 27.738,4.108 10.742,4.108 10.742,4.621 "
   id="polyline48" /><polygon
   style="fill:#000000;stroke:none"
   transform="matrix(14.784133,0,0,-14.784133,71.76843,698.40424)"
   points="10.992,4.496 10.742,4.996 10.492,4.496 10.742,4.621 "
   id="polygon50" /><polygon
   style="fill:none;stroke:#000000;stroke-width:0.1"
   transform="matrix(14.784133,0,0,-14.784133,71.76843,698.40424)"
   points="10.992,4.496 10.742,4.996 10.492,4.496 10.742,4.621 "
   id="polygon52" /><text
   style="font-size:7.24422503px;font-style:normal;font-weight:400;text-anchor:start;fill:#000000;font-family:sans"
   x="477.71207"
   y="-591.08752"
   font-size="0.49"
   font-style="normal"
   font-weight="400"
   id="text54"
   transform="scale(1,-1)">OUTPUT</text>

<rect
   x="331.65912"
   y="-486.70984"
   width="134.53561"
   height="32.87991"
   id="rect56"
   style="fill:#ffffff;stroke:none"
   transform="scale(1,-1)" /><rect
   x="331.65912"
   y="-486.70984"
   width="134.53561"
   height="32.87991"
   id="rect58"
   style="fill:none;stroke:#000000;stroke-width:1.47841334"
   transform="scale(1,-1)" /><text
   x="398.92725"
   y="-471.99939"
   font-size="0.49"
   font-style="normal"
   font-weight="400"
   id="text60"
   style="font-size:7.24422503px;font-style:normal;font-weight:400;text-anchor:middle;fill:#000000;font-family:monospace"
   transform="scale(1,-1)">RESONATOR</text>

<text
   x="398.92725"
   y="-464.69598"
   font-size="0.49"
   font-style="normal"
   font-weight="400"
   id="text62"
   style="font-size:7.24422503px;font-style:normal;font-weight:400;text-anchor:middle;fill:#000000;font-family:monospace"
   transform="scale(1,-1)">LINEAR TIME INVARIANT SYSTEM</text>

<rect
   x="152.6524"
   y="-486.65063"
   width="157.40666"
   height="32.820774"
   id="rect64"
   style="fill:#ffffff;stroke:none"
   transform="scale(1,-1)" /><rect
   x="152.6524"
   y="-486.65063"
   width="157.40666"
   height="32.820774"
   id="rect66"
   style="fill:none;stroke:#000000;stroke-width:1.47841334"
   transform="scale(1,-1)" /><text
   x="231.36325"
   y="-471.96985"
   font-size="0.49"
   font-style="normal"
   font-weight="400"
   id="text68"
   style="font-size:7.24422503px;font-style:normal;font-weight:400;text-anchor:middle;fill:#000000;font-family:monospace"
   transform="scale(1,-1)">EXCITER</text>

<text
   x="231.36325"
   y="-464.66638"
   font-size="0.49"
   font-style="normal"
   font-weight="400"
   id="text70"
   style="font-size:7.24422503px;font-style:normal;font-weight:400;text-anchor:middle;fill:#000000;font-family:monospace"
   transform="scale(1,-1)">NON-LINEAR SYSTEM</text>

<line
   x1="310.07422"
   y1="470.24011"
   x2="324.4592"
   y2="470.26971"
   id="line72"
   style="stroke:#000000;stroke-width:1.47841334" /><polygon
   points="16.967,13.312 17.467,13.561 16.967,13.812 17.092,13.561 "
   id="polygon74"
   transform="matrix(14.784133,0,0,-14.784133,71.76843,670.75624)"
   style="fill:#000000;stroke:none" /><polygon
   points="16.967,13.312 17.467,13.561 16.967,13.812 17.092,13.561 "
   id="polygon76"
   transform="matrix(14.784133,0,0,-14.784133,71.76843,670.75624)"
   style="fill:none;stroke:#000000;stroke-width:0.1" /><line
   x1="466.19522"
   y1="470.26971"
   x2="491.91968"
   y2="470.43225"
   id="line78"
   style="stroke:#000000;stroke-width:1.47841334" /><polygon
   points="28.293,13.301 28.794,13.548 28.296,13.801 28.419,13.55 "
   id="polygon80"
   transform="matrix(14.784133,0,0,-14.784133,71.76843,670.75624)"
   style="fill:#000000;stroke:none" /><polygon
   points="28.293,13.301 28.794,13.548 28.296,13.801 28.419,13.55 "
   id="polygon82"
   transform="matrix(14.784133,0,0,-14.784133,71.76843,670.75624)"
   style="fill:none;stroke:#000000;stroke-width:0.1" /><polyline
   points="27.793,13.554 27.793,11.453 10.795,11.453 10.795,11.966 "
   id="polyline84"
   transform="matrix(14.784133,0,0,-14.784133,71.76843,670.75624)"
   style="fill:none;stroke:#000000;stroke-width:0.1" /><polygon
   points="11.045,11.841 10.795,12.341 10.545,11.841 10.795,11.966 "
   id="polygon86"
   transform="matrix(14.784133,0,0,-14.784133,71.76843,670.75624)"
   style="fill:#000000;stroke:none" /><polygon
   points="11.045,11.841 10.795,12.341 10.545,11.841 10.795,11.966 "
   id="polygon88"
   transform="matrix(14.784133,0,0,-14.784133,71.76843,670.75624)"
   style="fill:none;stroke:#000000;stroke-width:0.1" /><text
   x="478.51044"
   y="-454.83484"
   font-size="0.49"
   font-style="normal"
   font-weight="400"
   id="text90"
   style="font-size:7.24422503px;font-style:normal;font-weight:400;text-anchor:start;fill:#000000;font-family:sans"
   transform="scale(1,-1)">OUTPUT</text>

<path
   style="fill:none;stroke:#000000;stroke-width:0.57599998px;stroke-linecap:butt;stroke-linejoin:miter;stroke-opacity:1"
   d="m 158.45032,619.67087 c -1.18935,8.55079 3.59114,5.3285 7.23898,8.97635"
   id="path3653"
   inkscape:connector-curvature="0" /><path
   style="fill:none;stroke:#000000;stroke-width:0.57599998px;stroke-linecap:butt;stroke-linejoin:miter;stroke-opacity:1"
   d="m 337.39813,618.80219 c -1.36569,7.72406 4.73452,5.60321 8.39722,9.2659"
   id="path3655"
   inkscape:connector-curvature="0" /><path
   style="fill:none;stroke:#000000;stroke-width:0.57599998px;stroke-linecap:butt;stroke-linejoin:miter;stroke-opacity:1"
   d="m 159.60856,482.27993 c -1.93897,7.30721 6.85416,6.66361 8.39723,11.29282"
   id="path3657"
   inkscape:connector-curvature="0" /><path
   style="fill:none;stroke:#000000;stroke-width:0.57599998px;stroke-linecap:butt;stroke-linejoin:miter;stroke-opacity:1"
   d="m 337.39811,480.83212 c -3.07058,8.3878 5.11642,7.14334 8.97635,11.00327"
   id="path3659"
   inkscape:connector-curvature="0" /><text
   xml:space="preserve"
   style="font-size:9.2159996px;font-style:normal;font-variant:normal;font-weight:bold;font-stretch:normal;line-height:125%;letter-spacing:0px;word-spacing:0px;fill:#000000;fill-opacity:1;stroke:none;font-family:Courier New;-inkscape-font-specification:Courier New Bold"
   x="169.164"
   y="-628.64862"
   id="text3661"
   sodipodi:linespacing="125%"
   transform="scale(1,-1)"><tspan
     sodipodi:role="line"
     id="tspan3663"
     x="169.164"
     y="-628.64862">7</tspan></text>

<text
   xml:space="preserve"
   style="font-size:9.2159996px;font-style:normal;font-variant:normal;font-weight:bold;font-stretch:normal;line-height:125%;letter-spacing:0px;word-spacing:0px;fill:#000000;fill-opacity:1;stroke:none;font-family:Courier New;-inkscape-font-specification:Courier New Bold"
   x="347.16318"
   y="-627.47894"
   id="text3661-3"
   sodipodi:linespacing="125%"
   transform="scale(1,-1)"><tspan
     sodipodi:role="line"
     id="tspan3663-8"
     x="347.16318"
     y="-627.47894">8</tspan></text>

<text
   xml:space="preserve"
   style="font-size:9.2159996px;font-style:normal;font-variant:normal;font-weight:bold;font-stretch:normal;line-height:125%;letter-spacing:0px;word-spacing:0px;fill:#000000;fill-opacity:1;stroke:none;font-family:Courier New;-inkscape-font-specification:Courier New Bold"
   x="169.37306"
   y="-493.85211"
   id="text3661-9"
   sodipodi:linespacing="125%"
   transform="scale(1,-1)"><tspan
     sodipodi:role="line"
     id="tspan3663-7"
     x="169.37306"
     y="-493.85211">9</tspan></text>

<text
   xml:space="preserve"
   style="font-size:9.2159996px;font-style:normal;font-variant:normal;font-weight:bold;font-stretch:normal;line-height:125%;letter-spacing:0px;word-spacing:0px;fill:#000000;fill-opacity:1;stroke:none;font-family:Courier New;-inkscape-font-specification:Courier New Bold"
   x="346.58408"
   y="-490.37732"
   id="text3661-7"
   sodipodi:linespacing="125%"
   transform="scale(1,-1)"><tspan
     sodipodi:role="line"
     id="tspan3663-1"
     x="346.58408"
     y="-490.37732">10</tspan></text>

<flowRoot
   xml:space="preserve"
   id="flowRoot4369"
   style="fill:black;stroke:none;stroke-opacity:1;stroke-width:1px;stroke-linejoin:miter;stroke-linecap:butt;fill-opacity:1;font-family:Courier New;font-style:normal;font-weight:normal;font-size:12px;line-height:125%;letter-spacing:0px;word-spacing:0px;-inkscape-font-specification:Courier New;font-stretch:normal;font-variant:normal"><flowRegion
     id="flowRegion4371"><rect
       id="rect4373"
       width="60.826271"
       height="29.364407"
       x="-233.86653"
       y="54.533897" /></flowRegion><flowPara
     id="flowPara4375" /></flowRoot><flowRoot
   xml:space="preserve"
   id="flowRoot4377"
   style="fill:black;stroke:none;stroke-opacity:1;stroke-width:1px;stroke-linejoin:miter;stroke-linecap:butt;fill-opacity:1;font-family:Courier New;font-style:normal;font-weight:normal;font-size:12px;line-height:125%;letter-spacing:0px;word-spacing:0px;-inkscape-font-specification:Courier New;font-stretch:normal;font-variant:normal"><flowRegion
     id="flowRegion4379"><rect
       id="rect4381"
       width="134.23729"
       height="96.483047"
       x="-268.47458"
       y="46.144066" /></flowRegion><flowPara
     id="flowPara4383" /></flowRoot><text
   xml:space="preserve"
   style="font-size:10.36800003px;font-style:normal;font-weight:normal;line-height:125%;letter-spacing:0px;word-spacing:0px;fill:#000000;fill-opacity:1;stroke:none;display:inline;font-family:Sans"
   x="128.35561"
   y="-565.77191"
   id="text7911-3"
   sodipodi:linespacing="125%"
   transform="scale(1,-1)"><tspan
     sodipodi:role="line"
     id="tspan7913-4"
     x="128.35561"
     y="-565.77191">FIG. 6</tspan></text>

<text
   xml:space="preserve"
   style="font-size:10.36800003px;font-style:normal;font-weight:normal;line-height:125%;letter-spacing:0px;word-spacing:0px;fill:#000000;fill-opacity:1;stroke:none;display:inline;font-family:Sans"
   x="128.35561"
   y="-427.18268"
   id="text7911-3-7"
   sodipodi:linespacing="125%"
   transform="scale(1,-1)"><tspan
     sodipodi:role="line"
     id="tspan7913-4-4"
     x="128.35561"
     y="-427.18268">FIG. 7</tspan></text>

<text
   xml:space="preserve"
   style="font-size:10.36800003px;font-style:normal;font-weight:normal;line-height:125%;letter-spacing:0px;word-spacing:0px;fill:#000000;fill-opacity:1;stroke:none;display:inline;font-family:Sans"
   x="121.74951"
   y="-554.91119"
   id="text7911-3-0"
   sodipodi:linespacing="125%"
   transform="scale(1,-1)"><tspan
     sodipodi:role="line"
     id="tspan7913-4-5"
     x="121.74951"
     y="-554.91119">Prior Art</tspan></text>
</g></svg>