<?xml version="1.0" encoding="UTF-8" standalone="no"?>
<!-- Created with Inkscape (http://www.inkscape.org/) -->

<svg
   xmlns:dc="http://purl.org/dc/elements/1.1/"
   xmlns:cc="http://creativecommons.org/ns#"
   xmlns:rdf="http://www.w3.org/1999/02/22-rdf-syntax-ns#"
   xmlns:svg="http://www.w3.org/2000/svg"
   xmlns="http://www.w3.org/2000/svg"
   xmlns:sodipodi="http://sodipodi.sourceforge.net/DTD/sodipodi-0.dtd"
   xmlns:inkscape="http://www.inkscape.org/namespaces/inkscape"
   id="svg2"
   version="1.1"
   inkscape:version="0.48.2 r9819"
   width="765"
   height="990"
   xml:space="preserve"
   sodipodi:docname="drawing-1.svg"><metadata
     id="metadata8"><rdf:RDF><cc:Work
         rdf:about=""><dc:format>image/svg+xml</dc:format><dc:type
           rdf:resource="http://purl.org/dc/dcmitype/StillImage" /><dc:title></dc:title></cc:Work></rdf:RDF></metadata><defs
     id="defs6"><clipPath
       clipPathUnits="userSpaceOnUse"
       id="clipPath3234"><path
         inkscape:connector-curvature="0"
         d="M 0,792 612,792 612,0 0,0 0,792 z"
         id="path3236" /></clipPath><clipPath
       clipPathUnits="userSpaceOnUse"
       id="clipPath6551"><path
         inkscape:connector-curvature="0"
         d="m 532.5,2849.17 3175,0 0,-2504.17 -3175,0 0,2504.17 z"
         id="path6553" /></clipPath><clipPath
       clipPathUnits="userSpaceOnUse"
       id="clipPath6950"><path
         inkscape:connector-curvature="0"
         d="m 532.5,2849.17 3175,0 0,-2504.17 -3175,0 0,2504.17 z"
         id="path6952" /></clipPath><marker
       inkscape:stockid="Arrow1Lend"
       orient="auto"
       refY="0"
       refX="0"
       id="Arrow1Lend"
       style="overflow:visible"><path
         inkscape:connector-curvature="0"
         id="path7291"
         d="M 0,0 5,-5 -12.5,0 5,5 0,0 z"
         style="fill-rule:evenodd;stroke:#000000;stroke-width:1pt;marker-start:none"
         transform="matrix(-0.8,0,0,-0.8,-10,0)" /></marker><marker
       inkscape:stockid="Arrow1Lend"
       orient="auto"
       refY="0"
       refX="0"
       id="marker3395"
       style="overflow:visible"><path
         inkscape:connector-curvature="0"
         id="path3397"
         d="M 0,0 5,-5 -12.5,0 5,5 0,0 z"
         style="fill-rule:evenodd;stroke:#000000;stroke-width:1pt;marker-start:none"
         transform="matrix(-0.8,0,0,-0.8,-10,0)" /></marker></defs><sodipodi:namedview
     pagecolor="#ffffff"
     bordercolor="#666666"
     borderopacity="1"
     objecttolerance="10"
     gridtolerance="10"
     guidetolerance="10"
     inkscape:pageopacity="0"
     inkscape:pageshadow="2"
     inkscape:window-width="1920"
     inkscape:window-height="1001"
     id="namedview4"
     showgrid="false"
     units="cm"
     inkscape:zoom="1.9070707"
     inkscape:cx="453.62982"
     inkscape:cy="801.34733"
     inkscape:window-x="0"
     inkscape:window-y="30"
     inkscape:window-maximized="1"
     inkscape:current-layer="g10" /><g
     id="g10"
     inkscape:groupmode="layer"
     inkscape:label="patent"
     transform="matrix(1.25,0,0,-1.25,0,990.00072)"><g
       id="g14"><text
         id="text16"
         transform="matrix(1,0,0,-1,126,764.88)"><tspan
           id="tspan18"
           sodipodi:role="line"
           y="0"
           x="0 6.9601798 10.320189 13.680196 17.040205 25.200083 31.200094 38.160114 42.120125 47.640217 53.520306 58.800327 64.800323 68.160347 71.520355 77.52037 83.520378"
           style="font-size:11.9552002px;font-variant:normal;font-weight:normal;writing-mode:lr-tb;fill:#000000;fill-opacity:1;fill-rule:nonzero;stroke:none;font-family:Times New Roman;-inkscape-font-specification:Times-Roman">TitleofInvention:  Digital aerophones and dynamic impulse response systems</tspan><tspan
           id="tspan20"
           sodipodi:role="line"
           y="14.4"
           x="0 8.640028 13.920036 23.280056 31.560085 37.560097 44.520115 48.480129 54.000217 59.88031 65.160332 71.160332 74.520348 80.520363 84.480377"
           style="font-size:11.9552002px;font-variant:normal;font-weight:normal;writing-mode:lr-tb;fill:#000000;fill-opacity:1;fill-rule:nonzero;stroke:none;font-family:Times New Roman;-inkscape-font-specification:Times-Roman">NameofInventor:  Vladimir Vassilev</tspan><tspan
           id="tspan22"
           sodipodi:role="line"
           style="font-size:11.9552002px;font-variant:normal;font-weight:normal;writing-mode:lr-tb;fill:#000000;fill-opacity:1;fill-rule:nonzero;stroke:none;font-family:Times New Roman;-inkscape-font-specification:Times-Roman"
           x="0"
           y="-2.0664658e+11" /></text>
</g><g
       transform="matrix(0.6,0,0,-57.72,539.988,752.028)"
       id="g24"><rect
         id="rect26"
         style="fill:#000000;fill-opacity:1;fill-rule:nonzero"
         transform="matrix(1,0,0,-1,0,1)"
         height="1"
         width="1"
         y="0"
         x="0" /></g><g
       transform="matrix(57.72,0,0,-0.6,511.668,723.708)"
       id="g28"><rect
         id="rect30"
         style="fill:#000000;fill-opacity:1;fill-rule:nonzero"
         transform="matrix(1,0,0,-1,0,1)"
         height="1"
         width="1"
         y="0"
         x="0" /></g><g
       id="g32"
       transform="translate(0,-9.6)"><text
         id="text34"
         transform="matrix(1,0,0,-1,291,705.84)"><tspan
           id="tspan36"
           sodipodi:role="line"
           y="0"
           x="0 9.0000181"
           style="font-size:11.9552002px;font-variant:normal;font-weight:normal;writing-mode:lr-tb;fill:#000000;fill-opacity:1;fill-rule:nonzero;stroke:none;font-family:Times New Roman;-inkscape-font-specification:Times-Roman">1— 2</tspan></text>
</g><g
       transform="matrix(0.6,0,0,-57.72,71.988,96.4681)"
       id="g38"><rect
         id="rect40"
         style="fill:#000000;fill-opacity:1;fill-rule:nonzero"
         transform="matrix(1,0,0,-1,0,1)"
         height="1"
         width="1"
         y="0"
         x="0" /></g><g
       transform="matrix(57.72,0,0,-0.6,43.668,68.1481)"
       id="g42"><rect
         id="rect44"
         style="fill:#000000;fill-opacity:1;fill-rule:nonzero"
         transform="matrix(1,0,0,-1,0,1)"
         height="1"
         width="1"
         y="0"
         x="0" /></g><g
       id="g3202"
       transform="matrix(0.46817271,0,0,0.49879501,396.15781,432.069)"
       style="fill:#ffffff;fill-opacity:1;stroke:#000000;stroke-opacity:1;display:inline" /><g
       id="g3088"
       transform="matrix(0.46817271,0,0,0.49879501,120.07764,536.27149)"
       style="fill:#ffffff;fill-opacity:1;stroke:#000000;stroke-width:1.00004685;stroke-miterlimit:4;stroke-opacity:1;stroke-dasharray:2.00009371, 1.00004685;stroke-dashoffset:0;display:inline" /><g
       transform="matrix(0.72,0,0,0.72,76.811319,112.48308)"
       style="display:inline"
       id="g8396"><g
         style="fill:#ffffff;fill-opacity:1;stroke:#000000;stroke-opacity:1"
         transform="matrix(0.65023987,0,0,0.69277085,272.34452,687.16288)"
         id="g3060"><path
           inkscape:connector-curvature="0"
           id="path3062"
           style="fill:#ffffff;fill-opacity:1;fill-rule:nonzero;stroke:#000000;stroke-opacity:1"
           d="m 0,0 c 5.503,-0.473 9.58,-5.317 9.106,-10.819 -0.472,-5.503 -5.315,-9.581 -10.819,-9.108 -5.503,0.473 -9.58,5.318 -9.106,10.82 C -10.347,-3.605 -5.504,0.473 0,0" /></g><g
         style="fill:#ffffff;fill-opacity:1;stroke:#000000;stroke-opacity:1"
         transform="matrix(0.65023987,0,0,0.69277085,272.34452,687.16288)"
         id="g3064"><path
           inkscape:connector-curvature="0"
           id="path3066"
           style="fill:#ffffff;fill-opacity:1;stroke:#000000;stroke-width:1;stroke-linecap:butt;stroke-linejoin:miter;stroke-miterlimit:4;stroke-opacity:1;stroke-dasharray:none"
           d="m 0,0 c 5.503,-0.473 9.58,-5.317 9.106,-10.819 -0.472,-5.503 -5.315,-9.581 -10.819,-9.108 -5.503,0.473 -9.58,5.318 -9.106,10.82 C -10.347,-3.605 -5.504,0.473 0,0 z" /></g><path
         inkscape:connector-curvature="0"
         id="path3068"
         style="fill:#ffffff;fill-opacity:1;fill-rule:nonzero;stroke:#000000;stroke-width:0.67116857;stroke-linecap:butt;stroke-linejoin:miter;stroke-miterlimit:4;stroke-opacity:1;stroke-dasharray:none"
         d="m 262.0931,687.18886 3.78179,0 0,-13.85611 -3.78179,0 0,13.85611 z" /><path
         inkscape:connector-curvature="0"
         id="path3070"
         style="fill:#ffffff;fill-opacity:1;fill-rule:nonzero;stroke:#000000;stroke-width:0.67116857;stroke-linecap:butt;stroke-linejoin:miter;stroke-miterlimit:4;stroke-opacity:1;stroke-dasharray:none"
         d="m 273.25056,707.33533 7.15264,0 0,-10.75943 -7.15264,0 0,10.75943 z" /><g
         style="fill:#ffffff;fill-opacity:1;stroke:#000000;stroke-opacity:1"
         transform="matrix(0.65023987,0,0,0.69277085,263.17191,690.01585)"
         id="g3072"><path
           inkscape:connector-curvature="0"
           id="path3074"
           style="fill:#ffffff;fill-opacity:1;stroke:#000000;stroke-width:1;stroke-linecap:butt;stroke-linejoin:miter;stroke-miterlimit:4;stroke-opacity:1;stroke-dasharray:none"
           d="M 0,0 0,34.5" /></g><g
         style="fill:#ffffff;fill-opacity:1;stroke:#000000;stroke-opacity:1"
         transform="matrix(0.65023987,0,0,0.69277085,273.25063,707.33512)"
         id="g3076"><path
           inkscape:connector-curvature="0"
           id="path3078"
           style="fill:#ffffff;fill-opacity:1;stroke:#000000;stroke-width:1;stroke-linecap:butt;stroke-linejoin:miter;stroke-miterlimit:4;stroke-opacity:1;stroke-dasharray:none"
           d="M 0,0 -15.5,9.5" /></g><g
         style="fill:#ffffff;fill-opacity:1;stroke:#000000;stroke-opacity:1"
         transform="matrix(0.65023987,0,0,0.69277085,273.25063,696.57583)"
         id="g3080"><path
           inkscape:connector-curvature="0"
           id="path3082"
           style="fill:#ffffff;fill-opacity:1;stroke:#000000;stroke-width:1;stroke-linecap:butt;stroke-linejoin:miter;stroke-miterlimit:4;stroke-opacity:1;stroke-dasharray:none"
           d="M 0,0 -15.5,-9.469" /></g><g
         style="fill:#ffffff;fill-opacity:1;stroke:#000000;stroke-width:1.00004685;stroke-miterlimit:4;stroke-opacity:1;stroke-dasharray:3.00014056, 3.00014056;stroke-dashoffset:0"
         transform="matrix(0.65023987,0,0,0.69277085,71.20322,597.4839)"
         id="g3084"><path
           inkscape:connector-curvature="0"
           id="path3086"
           style="fill:#ffffff;fill-opacity:1;fill-rule:nonzero;stroke:#000000;stroke-width:1.00004685;stroke-miterlimit:4;stroke-opacity:1;stroke-dasharray:3.00014056, 3.00014056;stroke-dashoffset:0"
           d="m 0,0 c 0,-8.313 6.51,-15.051 14.54,-15.051 8.031,0 14.541,6.738 14.541,15.051 0,8.313 -6.51,15.051 -14.541,15.051 C 6.51,15.051 0,8.313 0,0" /></g><g
         style="fill:#ffffff;fill-opacity:1;stroke:#000000;stroke-opacity:1"
         transform="matrix(0.65023987,0,0,0.69277085,71.20322,539.17781)"
         id="g3092"><path
           inkscape:connector-curvature="0"
           id="path3094"
           style="fill:#ffffff;fill-opacity:1;fill-rule:nonzero;stroke:#000000;stroke-opacity:1"
           d="m 0,0 c 0,-8.313 6.51,-15.051 14.54,-15.051 8.03,0 14.541,6.738 14.541,15.051 0,8.313 -6.511,15.051 -14.541,15.051 C 6.51,15.051 0,8.313 0,0" /></g><g
         style="fill:#ffffff;fill-opacity:1;stroke:#000000;stroke-opacity:1"
         transform="matrix(0.65023987,0,0,0.69277085,71.20322,539.17781)"
         id="g3096"><path
           inkscape:connector-curvature="0"
           id="path3098"
           style="fill:#ffffff;fill-opacity:1;stroke:#000000;stroke-width:1;stroke-linecap:butt;stroke-linejoin:miter;stroke-miterlimit:4;stroke-opacity:1;stroke-dasharray:none"
           d="m 0,0 c 0,-8.313 6.51,-15.051 14.54,-15.051 8.03,0 14.541,6.738 14.541,15.051 0,8.313 -6.511,15.051 -14.541,15.051 C 6.51,15.051 0,8.313 0,0 z" /></g><g
         style="fill:#ffffff;fill-opacity:1;stroke:#000000;stroke-opacity:1"
         transform="matrix(0.65023987,0,0,0.69277085,71.20322,479.18919)"
         id="g3100"><path
           inkscape:connector-curvature="0"
           id="path3102"
           style="fill:#ffffff;fill-opacity:1;fill-rule:nonzero;stroke:#000000;stroke-opacity:1"
           d="m 0,0 c 0,-8.312 6.51,-15.05 14.54,-15.05 8.03,0 14.541,6.738 14.541,15.05 0,8.313 -6.511,15.052 -14.541,15.052 C 6.51,15.052 0,8.313 0,0" /></g><g
         style="fill:#ffffff;fill-opacity:1;stroke:#000000;stroke-opacity:1"
         transform="matrix(0.65023987,0,0,0.69277085,71.20322,479.18919)"
         id="g3104"><path
           inkscape:connector-curvature="0"
           id="path3106"
           style="fill:#ffffff;fill-opacity:1;stroke:#000000;stroke-width:1;stroke-linecap:butt;stroke-linejoin:miter;stroke-miterlimit:4;stroke-opacity:1;stroke-dasharray:none"
           d="m 0,0 c 0,-8.312 6.51,-15.05 14.54,-15.05 8.03,0 14.541,6.738 14.541,15.05 0,8.313 -6.511,15.052 -14.541,15.052 C 6.51,15.052 0,8.313 0,0 z" /></g><g
         style="fill:#ffffff;fill-opacity:1;stroke:#000000;stroke-opacity:1"
         transform="matrix(0.65023987,0,0,0.69277085,71.20322,411.26994)"
         id="g3108"><path
           inkscape:connector-curvature="0"
           id="path3110"
           style="fill:#ffffff;fill-opacity:1;fill-rule:nonzero;stroke:#000000;stroke-opacity:1"
           d="m 0,0 c 0,-8.313 6.51,-15.051 14.54,-15.051 8.03,0 14.541,6.738 14.541,15.051 0,8.313 -6.511,15.051 -14.541,15.051 C 6.51,15.051 0,8.313 0,0" /></g><g
         style="fill:#ffffff;fill-opacity:1;stroke:#000000;stroke-opacity:1"
         transform="matrix(0.65023987,0,0,0.69277085,71.20322,411.26994)"
         id="g3112"><path
           inkscape:connector-curvature="0"
           id="path3114"
           style="fill:#ffffff;fill-opacity:1;stroke:#000000;stroke-width:1;stroke-linecap:butt;stroke-linejoin:miter;stroke-miterlimit:4;stroke-opacity:1;stroke-dasharray:none"
           d="m 0,0 c 0,-8.313 6.51,-15.051 14.54,-15.051 8.03,0 14.541,6.738 14.541,15.051 0,8.313 -6.511,15.051 -14.541,15.051 C 6.51,15.051 0,8.313 0,0 z" /></g><g
         style="fill:#ffffff;fill-opacity:1;stroke:#000000;stroke-opacity:1"
         transform="matrix(0.65023987,0,0,0.69277085,71.20322,346.63795)"
         id="g3116"><path
           inkscape:connector-curvature="0"
           id="path3118"
           style="fill:#ffffff;fill-opacity:1;fill-rule:nonzero;stroke:#000000;stroke-opacity:1"
           d="m 0,0 c 0,-8.313 6.51,-15.051 14.54,-15.051 8.03,0 14.541,6.738 14.541,15.051 0,8.313 -6.511,15.051 -14.541,15.051 C 6.51,15.051 0,8.313 0,0" /></g><g
         style="fill:#ffffff;fill-opacity:1;stroke:#000000;stroke-opacity:1"
         transform="matrix(0.65023987,0,0,0.69277085,71.20322,346.63795)"
         id="g3120"><path
           inkscape:connector-curvature="0"
           id="path3122"
           style="fill:#ffffff;fill-opacity:1;stroke:#000000;stroke-width:1;stroke-linecap:butt;stroke-linejoin:miter;stroke-miterlimit:4;stroke-opacity:1;stroke-dasharray:none"
           d="m 0,0 c 0,-8.313 6.51,-15.051 14.54,-15.051 8.03,0 14.541,6.738 14.541,15.051 0,8.313 -6.511,15.051 -14.541,15.051 C 6.51,15.051 0,8.313 0,0 z" /></g><g
         style="fill:#ffffff;fill-opacity:1;stroke:#000000;stroke-opacity:1"
         transform="matrix(0.65023987,0,0,0.69277085,67.46272,657.37443)"
         id="g3124"><path
           inkscape:connector-curvature="0"
           id="path3126"
           style="fill:#ffffff;fill-opacity:1;fill-rule:nonzero;stroke:#000000;stroke-opacity:1"
           d="m 0,0 16.327,81.633 -15.816,0 L 0,0 z" /></g><g
         style="fill:#ffffff;fill-opacity:1;stroke:#000000;stroke-opacity:1"
         transform="matrix(0.65023987,0,0,0.69277085,67.46272,657.37443)"
         id="g3128"><path
           inkscape:connector-curvature="0"
           id="path3130"
           style="fill:#ffffff;fill-opacity:1;stroke:#000000;stroke-width:1;stroke-linecap:butt;stroke-linejoin:miter;stroke-miterlimit:4;stroke-opacity:1;stroke-dasharray:4;stroke-dashoffset:0"
           d="m 0,0 16.327,81.633 -15.816,0 L 0,0 z" /></g><g
         style="fill:#ffffff;fill-opacity:1;stroke:#000000;stroke-opacity:1"
         transform="matrix(0.65023987,0,0,0.69277085,90.94249,272.31999)"
         id="g3132"><path
           inkscape:connector-curvature="0"
           id="path3134"
           style="fill:#ffffff;fill-opacity:1;stroke:#000000;stroke-width:1;stroke-linecap:butt;stroke-linejoin:miter;stroke-miterlimit:4;stroke-opacity:1;stroke-dasharray:none"
           d="m 0,0 c 0,-2.004 -7.081,-3.628 -15.816,-3.628 -8.736,0 -15.817,1.624 -15.817,3.628 0,2.004 7.081,3.628 15.817,3.628 C -7.081,3.628 0,2.004 0,0 z" /></g><g
         style="fill:#ffffff;fill-opacity:1;stroke:#000000;stroke-width:1;stroke-miterlimit:4;stroke-opacity:1;stroke-dasharray:none"
         transform="matrix(0.65023987,0,0,0.69277085,99.8998,655.63197)"
         id="g3136"><path
           inkscape:connector-curvature="0"
           id="path3138"
           style="fill:#ffffff;fill-opacity:1;stroke:#000000;stroke-width:1;stroke-linecap:butt;stroke-linejoin:miter;stroke-miterlimit:4;stroke-opacity:1;stroke-dasharray:none"
           d="m 0,0 -9.299,0 0,-59.697 -4.476,0 0,-493.28 c -0.089,0.01 -0.183,0.019 -0.272,0.03 0.17,-0.214 0.272,-0.433 0.272,-0.657 0,-2.004 -7.081,-3.628 -15.817,-3.628 -8.735,0 -15.816,1.624 -15.816,3.628 0,0.224 0.101,0.443 0.272,0.657 -0.09,-0.011 -0.184,-0.02 -0.272,-0.03 l 0,493.28 -4.477,0 0,59.697 -9.299,0 0,-557.143 0.081,0 c -0.047,-0.125 -0.081,-0.251 -0.081,-0.378 0,-2.969 13.249,-5.377 29.592,-5.377 16.343,0 29.592,2.408 29.592,5.377 0,0.127 -0.033,0.253 -0.081,0.378 l 0.081,0 L 0,0 z" /></g><g
         style="fill:#ffffff;fill-opacity:1;stroke:#000000;stroke-opacity:1"
         transform="matrix(0.65023987,0,0,0.69277085,67.46272,732.37497)"
         id="g3140"><path
           inkscape:connector-curvature="0"
           id="path3142"
           style="fill:#ffffff;fill-opacity:1;fill-rule:nonzero;stroke:#000000;stroke-opacity:1"
           d="m 0,0 0,-24.676 4.477,0 0,12.538 31.632,0 0,-158.477 4.477,0 L 40.586,0 0,0 z" /></g><g
         style="fill:#ffffff;fill-opacity:1;stroke:#000000;stroke-opacity:1"
         transform="matrix(0.65023987,0,0,0.69277085,67.46272,732.37497)"
         id="g3144"><path
           inkscape:connector-curvature="0"
           id="path3146"
           style="fill:#ffffff;fill-opacity:1;stroke:#000000;stroke-width:1;stroke-linecap:butt;stroke-linejoin:miter;stroke-miterlimit:4;stroke-opacity:1;stroke-dasharray:none"
           d="m 0,0 0,-24.676 4.477,0 0,12.538 31.632,0 0,-158.477 4.477,0 L 40.586,0 0,0 z" /></g><path
         inkscape:connector-curvature="0"
         id="path3148"
         style="fill:#ffffff;fill-opacity:1;fill-rule:nonzero;stroke:#000000;stroke-width:0.67116857;stroke-linecap:butt;stroke-linejoin:miter;stroke-miterlimit:4;stroke-opacity:1;stroke-dasharray:none"
         d="m 67.46265,614.17774 2.91113,0 0,99.7493 -2.91113,0 0,-99.7493 z" /><g
         style="fill:#ffffff;fill-opacity:1;stroke:#000000;stroke-width:1;stroke-miterlimit:4;stroke-opacity:1;stroke-dasharray:3.00000005, 3.00000005;stroke-dashoffset:0"
         transform="matrix(0.65023987,0,0,0.69277085,244.48135,597.4839)"
         id="g3150"><path
           inkscape:connector-curvature="0"
           id="path3152"
           style="fill:#ffffff;fill-opacity:1;fill-rule:nonzero;stroke:#000000;stroke-width:1;stroke-miterlimit:4;stroke-opacity:1;stroke-dasharray:3.00000005, 3.00000005;stroke-dashoffset:0"
           d="m 0,0 c 0,-8.313 6.51,-15.051 14.541,-15.051 8.031,0 14.541,6.738 14.541,15.051 0,8.313 -6.51,15.051 -14.541,15.051 C 6.51,15.051 0,8.313 0,0" /></g><g
         style="fill:#ffffff;fill-opacity:1;stroke:#000000;stroke-opacity:1"
         transform="matrix(0.65023987,0,0,0.69277085,244.48135,539.17781)"
         id="g3158"><path
           inkscape:connector-curvature="0"
           id="path3160"
           style="fill:#ffffff;fill-opacity:1;fill-rule:nonzero;stroke:#000000;stroke-opacity:1"
           d="m 0,0 c 0,-8.313 6.51,-15.051 14.541,-15.051 8.029,0 14.541,6.738 14.541,15.051 0,8.313 -6.512,15.051 -14.541,15.051 C 6.51,15.051 0,8.313 0,0" /></g><g
         style="fill:#ffffff;fill-opacity:1;stroke:#000000;stroke-opacity:1"
         transform="matrix(0.65023987,0,0,0.69277085,244.48135,539.17781)"
         id="g3162"><path
           inkscape:connector-curvature="0"
           id="path3164"
           style="fill:#ffffff;fill-opacity:1;stroke:#000000;stroke-width:1;stroke-linecap:butt;stroke-linejoin:miter;stroke-miterlimit:4;stroke-opacity:1;stroke-dasharray:none"
           d="m 0,0 c 0,-8.313 6.51,-15.051 14.541,-15.051 8.029,0 14.541,6.738 14.541,15.051 0,8.313 -6.512,15.051 -14.541,15.051 C 6.51,15.051 0,8.313 0,0 z" /></g><g
         style="fill:#ffffff;fill-opacity:1;stroke:#000000;stroke-opacity:1"
         transform="matrix(0.65023987,0,0,0.69277085,244.48135,479.18919)"
         id="g3166"><path
           inkscape:connector-curvature="0"
           id="path3168"
           style="fill:#ffffff;fill-opacity:1;fill-rule:nonzero;stroke:#000000;stroke-opacity:1"
           d="m 0,0 c 0,-8.312 6.51,-15.05 14.541,-15.05 8.029,0 14.541,6.738 14.541,15.05 0,8.313 -6.512,15.052 -14.541,15.052 C 6.51,15.052 0,8.313 0,0" /></g><g
         style="fill:#ffffff;fill-opacity:1;stroke:#000000;stroke-opacity:1"
         transform="matrix(0.65023987,0,0,0.69277085,244.48135,479.18919)"
         id="g3170"><path
           inkscape:connector-curvature="0"
           id="path3172"
           style="fill:#ffffff;fill-opacity:1;stroke:#000000;stroke-width:1;stroke-linecap:butt;stroke-linejoin:miter;stroke-miterlimit:4;stroke-opacity:1;stroke-dasharray:none"
           d="m 0,0 c 0,-8.312 6.51,-15.05 14.541,-15.05 8.029,0 14.541,6.738 14.541,15.05 0,8.313 -6.512,15.052 -14.541,15.052 C 6.51,15.052 0,8.313 0,0 z" /></g><g
         style="fill:#ffffff;fill-opacity:1;stroke:#000000;stroke-opacity:1"
         transform="matrix(0.65023987,0,0,0.69277085,244.48135,411.26994)"
         id="g3174"><path
           inkscape:connector-curvature="0"
           id="path3176"
           style="fill:#ffffff;fill-opacity:1;fill-rule:nonzero;stroke:#000000;stroke-opacity:1"
           d="m 0,0 c 0,-8.313 6.51,-15.051 14.541,-15.051 8.029,0 14.541,6.738 14.541,15.051 0,8.313 -6.512,15.051 -14.541,15.051 C 6.51,15.051 0,8.313 0,0" /></g><g
         style="fill:#ffffff;fill-opacity:1;stroke:#000000;stroke-opacity:1"
         transform="matrix(0.65023987,0,0,0.69277085,244.48135,411.26994)"
         id="g3178"><path
           inkscape:connector-curvature="0"
           id="path3180"
           style="fill:#ffffff;fill-opacity:1;stroke:#000000;stroke-width:1;stroke-linecap:butt;stroke-linejoin:miter;stroke-miterlimit:4;stroke-opacity:1;stroke-dasharray:none"
           d="m 0,0 c 0,-8.313 6.51,-15.051 14.541,-15.051 8.029,0 14.541,6.738 14.541,15.051 0,8.313 -6.512,15.051 -14.541,15.051 C 6.51,15.051 0,8.313 0,0 z" /></g><g
         style="fill:#ffffff;fill-opacity:1;stroke:#000000;stroke-opacity:1"
         transform="matrix(0.65023987,0,0,0.69277085,244.48135,346.63795)"
         id="g3182"><path
           inkscape:connector-curvature="0"
           id="path3184"
           style="fill:#ffffff;fill-opacity:1;fill-rule:nonzero;stroke:#000000;stroke-opacity:1"
           d="m 0,0 c 0,-8.313 6.51,-15.051 14.541,-15.051 8.029,0 14.541,6.738 14.541,15.051 0,8.313 -6.512,15.051 -14.541,15.051 C 6.51,15.051 0,8.313 0,0" /></g><g
         style="fill:#ffffff;fill-opacity:1;stroke:#000000;stroke-opacity:1"
         transform="matrix(0.65023987,0,0,0.69277085,244.48135,346.63795)"
         id="g3186"><path
           inkscape:connector-curvature="0"
           id="path3188"
           style="fill:#ffffff;fill-opacity:1;stroke:#000000;stroke-width:1;stroke-linecap:butt;stroke-linejoin:miter;stroke-miterlimit:4;stroke-opacity:1;stroke-dasharray:none"
           d="m 0,0 c 0,-8.313 6.51,-15.051 14.541,-15.051 8.029,0 14.541,6.738 14.541,15.051 0,8.313 -6.512,15.051 -14.541,15.051 C 6.51,15.051 0,8.313 0,0 z" /></g><g
         style="fill:#ffffff;fill-opacity:1;stroke:#000000;stroke-opacity:1"
         transform="matrix(0.65023987,0,0,0.69277085,240.74117,657.37443)"
         id="g3190"><path
           inkscape:connector-curvature="0"
           id="path3192"
           style="fill:#ffffff;fill-opacity:1;fill-rule:nonzero;stroke:#000000;stroke-opacity:1"
           d="m 0,0 16.327,81.633 -15.816,0 L 0,0 z" /></g><g
         style="fill:#ffffff;fill-opacity:1;stroke:#000000;stroke-opacity:1"
         transform="matrix(0.65023987,0,0,0.69277085,240.74117,657.37443)"
         id="g3194"><path
           inkscape:connector-curvature="0"
           id="path3196"
           style="fill:#ffffff;fill-opacity:1;stroke:#000000;stroke-width:1;stroke-linecap:butt;stroke-linejoin:miter;stroke-miterlimit:4;stroke-opacity:1;stroke-dasharray:4;stroke-dashoffset:0"
           d="m 0,0 16.327,81.633 -15.816,0 L 0,0 z" /></g><g
         style="fill:#ffffff;fill-opacity:1;stroke:#000000;stroke-opacity:1"
         transform="matrix(0.65023987,0,0,0.69277085,264.22094,272.31999)"
         id="g3198"><path
           inkscape:connector-curvature="0"
           id="path3200"
           style="fill:#ffffff;fill-opacity:1;stroke:#000000;stroke-width:1;stroke-linecap:butt;stroke-linejoin:miter;stroke-miterlimit:4;stroke-opacity:1;stroke-dasharray:none"
           d="m 0,0 c 0,-2.004 -7.081,-3.628 -15.816,-3.628 -8.736,0 -15.817,1.624 -15.817,3.628 0,2.004 7.081,3.628 15.817,3.628 C -7.081,3.628 0,2.004 0,0 z" /></g><path
         inkscape:connector-curvature="0"
         id="path3204"
         style="fill:#ffffff;fill-opacity:1;stroke:#000000;stroke-width:0.67116857;stroke-linecap:butt;stroke-linejoin:miter;stroke-miterlimit:4;stroke-opacity:1;stroke-dasharray:none;display:inline"
         d="m 273.17826,655.63197 -6.04658,0 0,-41.35634 -2.91047,0 0,-341.73001 c -0.0572,0.007 -0.119,0.0132 -0.17687,0.0208 0.11054,-0.14826 0.17687,-0.29997 0.17687,-0.45515 0,-1.38832 -4.60435,-2.51338 -10.28485,-2.51338 -5.67984,0 -10.28419,1.12506 -10.28419,2.51338 0,0.15518 0.0657,0.30689 0.17621,0.45515 -0.0579,-0.008 -0.11899,-0.0139 -0.17621,-0.0208 l 0,341.73001 -2.91113,0 0,41.35634 -6.04658,0 0,-385.97243 0.0527,0 c -0.0306,-0.0866 -0.0527,-0.17389 -0.0527,-0.26187 0,-2.05683 8.61438,-3.72503 19.2419,-3.72503 10.62752,0 19.2419,1.6682 19.2419,3.72503 0,0.088 -0.0215,0.17527 -0.0527,0.26187 l 0.0527,0 0,385.97243 z" /><g
         style="fill:#ffffff;fill-opacity:1;stroke:#000000;stroke-opacity:1"
         transform="matrix(0.65023987,0,0,0.69277085,240.74117,732.37497)"
         id="g3206"><path
           inkscape:connector-curvature="0"
           id="path3208"
           style="fill:#ffffff;fill-opacity:1;fill-rule:nonzero;stroke:#000000;stroke-opacity:1"
           d="m 0,0 0,-24.676 4.477,0 0,12.538 31.632,0 0,-158.477 4.477,0 L 40.586,0 0,0 z" /></g><g
         style="fill:#ffffff;fill-opacity:1;stroke:#000000;stroke-opacity:1"
         transform="matrix(0.65023987,0,0,0.69277085,240.74117,732.37497)"
         id="g3210"><path
           inkscape:connector-curvature="0"
           id="path3212"
           style="fill:#ffffff;fill-opacity:1;stroke:#000000;stroke-width:1;stroke-linecap:butt;stroke-linejoin:miter;stroke-miterlimit:4;stroke-opacity:1;stroke-dasharray:none"
           d="m 0,0 0,-24.676 4.477,0 0,12.538 31.632,0 0,-158.477 4.477,0 L 40.586,0 0,0 z" /></g><path
         inkscape:connector-curvature="0"
         id="path3214"
         style="fill:#ffffff;fill-opacity:1;fill-rule:nonzero;stroke:#000000;stroke-width:0.67116857;stroke-linecap:butt;stroke-linejoin:miter;stroke-miterlimit:4;stroke-opacity:1;stroke-dasharray:none"
         d="m 240.74117,614.17774 2.91113,0 0,99.7493 -2.91113,0 0,-99.7493 z" /><text
         y="-627.89801"
         x="51.725891"
         style="font-size:8.05402279px;fill:#ffffff;fill-opacity:1;stroke:#000000;stroke-width:0.67116857;stroke-opacity:1"
         id="text3216"
         transform="scale(0.96881754,-1.0321861)"><tspan
           id="tspan3218"
           y="-627.89801"
           x="51.725891"
           style="font-size:8.05402279px;font-variant:normal;font-weight:normal;font-stretch:normal;writing-mode:lr-tb;fill:#ffffff;fill-opacity:1;fill-rule:nonzero;stroke:#000000;stroke-width:0.67116857;stroke-opacity:1;font-family:Myriad Pro;-inkscape-font-specification:MyriadPro-Regular">1</tspan><tspan
           id="tspan3220"
           y="-716.25061"
           x="63.396164"
           style="font-size:8.05402279px;font-variant:normal;font-weight:normal;font-stretch:normal;writing-mode:lr-tb;fill:#ffffff;fill-opacity:1;fill-rule:nonzero;stroke:#000000;stroke-width:0.67116857;stroke-opacity:1;font-family:Myriad Pro;-inkscape-font-specification:MyriadPro-Regular">2</tspan><tspan
           id="tspan3222"
           y="-685.2829"
           x="59.779907"
           style="font-size:8.05402279px;font-variant:normal;font-weight:normal;font-stretch:normal;writing-mode:lr-tb;fill:#ffffff;fill-opacity:1;fill-rule:nonzero;stroke:#000000;stroke-width:0.67116857;stroke-opacity:1;font-family:Myriad Pro;-inkscape-font-specification:MyriadPro-Regular">3</tspan><tspan
           id="tspan3224"
           y="-578.85706"
           x="108.10405"
           style="font-size:8.05402279px;font-variant:normal;font-weight:normal;font-stretch:normal;writing-mode:lr-tb;fill:#ffffff;fill-opacity:1;fill-rule:nonzero;stroke:#000000;stroke-width:0.67116857;stroke-opacity:1;font-family:Myriad Pro;-inkscape-font-specification:MyriadPro-Regular">4</tspan><tspan
           id="tspan3226"
           y="-680.07196"
           x="297.37357"
           style="font-size:8.05402279px;font-variant:normal;font-weight:normal;font-stretch:normal;writing-mode:lr-tb;fill:#ffffff;fill-opacity:1;fill-rule:nonzero;stroke:#000000;stroke-width:0.67116857;stroke-opacity:1;font-family:Myriad Pro;-inkscape-font-specification:MyriadPro-Regular">5</tspan><tspan
           id="tspan3228"
           y="-659.05096"
           x="297.37357"
           style="font-size:8.05402279px;font-variant:normal;font-weight:normal;font-stretch:normal;writing-mode:lr-tb;fill:#ffffff;fill-opacity:1;fill-rule:nonzero;stroke:#000000;stroke-width:0.67116857;stroke-opacity:1;font-family:Myriad Pro;-inkscape-font-specification:MyriadPro-Regular">6</tspan></text>
<g
         transform="matrix(0.65023987,0,0,0.69277085,-15.56127,222.05351)"
         style="fill:#ffffff;fill-opacity:1;stroke:#000000;stroke-opacity:1"
         id="g3230"><g
           style="fill:#ffffff;fill-opacity:1;stroke:#000000;stroke-opacity:1"
           clip-path="url(#clipPath3234)"
           id="g3232"><g
             style="fill:#ffffff;fill-opacity:1;stroke:#000000;stroke-opacity:1"
             transform="translate(121.667,616.333)"
             id="g3238"><path
               inkscape:connector-curvature="0"
               id="path3240"
               style="fill:#ffffff;fill-opacity:1;stroke:#000000;stroke-width:1;stroke-linecap:butt;stroke-linejoin:miter;stroke-miterlimit:4;stroke-opacity:1;stroke-dasharray:none"
               d="m 0,0 c -2.19,0.491 -3.69,2.188 -4.116,4.566 -2.97,0.661 -6.015,-0.498 -8.551,-1.899" /></g><g
             style="fill:#ffffff;fill-opacity:1;stroke:#000000;stroke-opacity:1"
             transform="translate(131,733)"
             id="g3242"><path
               inkscape:connector-curvature="0"
               id="path3244"
               style="fill:#ffffff;fill-opacity:1;stroke:#000000;stroke-width:1;stroke-linecap:butt;stroke-linejoin:miter;stroke-miterlimit:4;stroke-opacity:1;stroke-dasharray:none"
               d="M 0,0 C 0.894,4.868 -2.163,11.818 -4,16" /></g><g
             style="fill:#ffffff;fill-opacity:1;stroke:#000000;stroke-opacity:1"
             transform="translate(157,540.333)"
             id="g3246"><path
               inkscape:connector-curvature="0"
               id="path3248"
               style="fill:#ffffff;fill-opacity:1;stroke:#000000;stroke-width:1;stroke-linecap:butt;stroke-linejoin:miter;stroke-miterlimit:4;stroke-opacity:1;stroke-dasharray:none"
               d="M 0,0 C 7.925,1.963 17.453,0.057 25.333,2.667" /></g><g
             style="fill:#ffffff;fill-opacity:1;stroke:#000000;stroke-opacity:1"
             transform="translate(449.667,691.6665)"
             id="g3250"><path
               inkscape:connector-curvature="0"
               id="path3252"
               style="fill:#ffffff;fill-opacity:1;stroke:#000000;stroke-width:1;stroke-linecap:butt;stroke-linejoin:miter;stroke-miterlimit:4;stroke-opacity:1;stroke-dasharray:none"
               d="M 0,0 C 4.751,2.929 9.591,1.655 14.667,3.333" /></g><g
             style="fill:#ffffff;fill-opacity:1;stroke:#000000;stroke-opacity:1"
             transform="translate(445.667,661.6665)"
             id="g3254"><path
               inkscape:connector-curvature="0"
               id="path3256"
               style="fill:#ffffff;fill-opacity:1;stroke:#000000;stroke-width:1;stroke-linecap:butt;stroke-linejoin:miter;stroke-miterlimit:4;stroke-opacity:1;stroke-dasharray:none"
               d="M 0,0 C 5.13,0 12.003,-1.066 16.667,0.667" /></g><g
             style="fill:#ffffff;fill-opacity:1;stroke:#000000;stroke-opacity:1"
             transform="translate(136.3335,700.333)"
             id="g3258"><path
               inkscape:connector-curvature="0"
               id="path3260"
               style="fill:#ffffff;fill-opacity:1;stroke:#000000;stroke-width:1;stroke-linecap:butt;stroke-linejoin:miter;stroke-miterlimit:4;stroke-opacity:1;stroke-dasharray:none"
               d="M 0,0 C -7.577,-0.471 -8.785,-0.109 -14.667,4" /></g></g></g></g><g
       style="display:inline"
       id="g6280"
       transform="matrix(0.47791463,0,0,0.47822621,-142.02959,-142.39599)"><path
         d="m 807.24886,720.53277 1.417,-2.833 1.416,-1.75 1.417,-0.5 1.417,0.917 1.416,2.416 1.417,3.667 1.417,4.75 1.416,5.417 1.417,5.416 1.417,5.084 1.416,4.25 1.417,3.083 1.333,1.75 1.417,0.25 1.417,-1 1.416,-1.917 1.417,-2.666 1.417,-2.75 1.416,-2.584 1.417,-2 1.417,-1 1.416,0 1.417,1.084 1.417,2 1.416,2.833 1.417,3.25 1.417,3.25 1.333,2.833 1.417,2.167 1.416,1.167 1.417,0 1.417,-1.084 1.416,-2.083 1.417,-2.667 1.417,-2.916 1.416,-2.75 1.417,-2 1.417,-0.917 1.416,0.5 1.417,2 1.417,3.417 1.416,4.75 1.417,5.666 1.333,6.167 1.417,6.167 1.417,5.583 1.416,4.5 1.417,2.917 1.417,1.166 1.416,-0.833 1.417,-2.833 1.417,-4.584 1.416,-6.083 1.417,-7 1.417,-7.333 1.416,-7.084 1.417,-6.333 1.417,-5.167 1.333,-3.5 1.417,-1.833 1.416,-0.167 1.417,1.417 1.417,2.75 1.416,3.583 1.417,3.917 1.417,3.833 1.416,3.25 1.417,2.167 1.417,0.833 1.416,-0.75 1.417,-2.333 1.417,-3.917 1.416,-5.416 1.334,-6.334 1.416,-7.166 1.417,-7.334 1.417,-7.25 1.416,-6.666 1.417,-5.75 1.417,-4.667 1.416,-3.417 1.417,-2 1.417,-0.583 1.416,0.75 1.417,1.917 1.417,3.083 1.416,3.917 1.417,4.583 1.417,5.083 1.333,5.334 1.417,5.25 1.416,5.083 1.417,4.667 1.417,4.083 1.416,3.417 1.417,2.583 1.417,1.833 1.416,1 1.417,0.25 1.417,-0.5 1.416,-1 1.417,-1.5 1.417,-1.75 1.416,-1.75 1.334,-1.583 1.416,-1.25 1.417,-0.667 1.417,-0.083 1.416,0.5 1.417,1.25 1.417,1.75 1.416,2.25 1.417,2.5 1.417,2.667 1.416,2.583 1.417,2.25 1.417,1.833 1.416,1.334 1.417,0.666 1.417,0.084 1.333,-0.667 1.417,-1.167 1.416,-1.583 1.417,-1.917 1.417,-1.916 1.416,-1.75 1.417,-1.5 1.417,-1.084 1.416,-0.416 1.417,0.166 1.417,0.834 1.416,1.416 1.417,1.917 1.417,2.167 1.416,2.416 1.334,2.5 1.41604,2.334 1.417,2.083 1.417,1.667 1.416,1.083 1.417,0.583 1.417,0.084 1.416,-0.584 1.417,-1.083 1.417,-1.417 1.416,-1.75 1.417,-1.916 1.417,-2 1.416,-2.084 1.417,-1.916 1.333,-1.834 1.417,-1.75 1.417,-1.5 1.416,-1.333 1.417,-1.083 1.417,-0.917 1.416,-0.583 1.417,-0.417 1.417,-0.167 1.416,0.084 1.417,0.25 1.417,0.5 1.416,0.75 1.417,0.833 1.417,1 1.416,1.083 1.334,1.084 1.416,1 1.417,0.916 1.417,0.75 1.416,0.5 1.417,0.167 1.417,-0.25 1.416,-0.5 1.417,-0.917 1.417,-1.166 1.416,-1.334 1.417,-1.583 1.417,-1.667 1.416,-1.583 1.417,-1.5 1.333,-1.25 1.417,-1 1.417,-0.667 1.416,-0.25 1.417,0.084 1.417,0.5 1.416,0.833 1.417,1.083 1.417,1.167 1.416,1.25 1.417,1.083 1.417,0.834 1.416,0.583 1.417,0.167 1.417,-0.417 1.416,-0.833 1.334,-1.334 1.416,-1.833 1.417,-2.167 1.417,-2.5 1.416,-2.666 1.417,-2.75 1.417,-2.667 1.416,-2.417 1.417,-2.166 1.417,-1.667 1.416,-1.083 1.417,-0.584 1.417,0.084 1.416,0.666 1.417,1.167 1.333,1.667 1.417,2 1.417,2.333 1.416,2.5 1.417,2.667 1.417,2.5 1.416,2.5 1.417,2.166 1.417,2 1.416,1.584 1.417,1.333 1.417,1 1.416,0.667 1.417,0.416 1.417,0.25 1.333,0.167 1.417,0.167 1.416,0.25 1.417,0.333 1.417,0.5 1.416,0.667 1.417,0.916 1.417,1.167 1.416,1.25 1.417,1.417 1.417,1.5 1.416,1.5 1.4169,1.333 1.417,1.167 1.416,1 1.417,0.583 1.333,0.25 1.417,-0.083 1.417,-0.5 1.416,-0.75 1.417,-1.167 1.417,-1.333 1.416,-1.5 1.417,-1.5 1.417,-1.584 1.416,-1.416 1.417,-1.334 1.417,-1 1.416,-0.833 1.417,-0.417 1.417,-0.166 1.333,0.166 1.417,0.417 1.416,0.667 1.417,0.833 1.417,0.833 1.416,0.917 1.417,0.917 1.417,0.75 1.416,0.583 1.417,0.333 1.417,0.084 1.416,-0.25 1.417,-0.5 1.417,-0.75 1.416,-1.084 1.334,-1.333 1.416,-1.5 1.417,-1.667 1.417,-1.75 1.416,-1.75 1.417,-1.75 1.417,-1.583 1.416,-1.5 1.417,-1.25 1.417,-1 1.416,-0.667 1.417,-0.416 1.417,-0.167 1.416,0.083 1.417,0.334 1.417,0.5 1.333,0.666 1.417,0.667 1.416,0.667 1.417,0.5 1.417,0.416 1.416,0.334 1.417,0 1.417,-0.167 1.416,-0.333 1.417,-0.5"
         style="fill:none;stroke:#000000;stroke-width:1.60000002;stroke-linecap:butt;stroke-linejoin:round;stroke-miterlimit:10;stroke-opacity:1;stroke-dasharray:none"
         id="path5336"
         inkscape:connector-curvature="0" /><path
         d="m 522.16586,741.11677 1.416,-0.167 1.417,-0.25 1.417,-0.25 1.416,-0.25 1.417,-0.25 1.417,-0.083 1.416,0.083 1.417,0.167 1.417,0.333 1.416,0.333 1.417,0.417 1.417,0.333 1.416,0.167 1.417,0.083 1.333,-0.166 1.417,-0.25 1.417,-0.417 1.416,-0.5 1.417,-0.5 1.417,-0.417 1.416,-0.333 1.417,-0.083 1.417,0.083 1.416,0.417 1.417,0.5 1.417,0.583 1.416,0.75 1.417,0.667 1.417,0.5 1.333,0.333 1.417,0.167 1.416,-0.167 1.417,-0.333 1.417,-0.667 1.416,-0.833 1.417,-0.917 1.417,-0.917 1.416,-0.916 1.417,-0.75 1.417,-0.5 1.416,-0.25 1.417,0.166 1.417,0.5 1.416,0.834 1.417,1.166 1.333,1.417 1.417,1.583 1.417,1.584 1.416,1.416 1.417,1.25 1.417,0.834 1.416,0.416 1.417,-0.083 1.417,-0.75 1.416,-1.167 1.417,-1.75 1.417,-2.166 1.416,-2.5 1.417,-2.667 1.417,-2.667 1.333,-2.416 1.417,-2.25 1.416,-1.667 1.417,-1.083 1.417,-0.5 1.416,0.333 1.417,1.083 1.417,1.834 1.416,2.583 1.417,3.167 1.417,3.75 1.416,4.083 1.417,4.5 1.417,4.583 1.416,5.667 1.334,5.5 1.416,4.333 1.417,6.417 1.417,5.25 1.416,3.667 1.417,3.25 1.417,1.333 1.416,-2.083 1.417,-5.417 1.417,-9.167 1.416,-14 1.417,-16.75 1.417,-20.583 1.416,-22.583 1.417,-22.917 1.417,-21.75 1.333,-18.5 1.417,-13.25 1.416,-6.833 1.417,1.833 1.417,9.917 1.416,18.5 1.417,26.333 1.417,30.917 1.416,34.333 1.417,34.083 1.417,31 1.416,23.917 1.417,15.75 1.417,5.083 1.416,-6.416 1.334,-17.667 1.416,-27.083 1.417,-32.334 1.417,-37.583 1.416,-36.083 1.417,-30.75 1.417,-23.75 1.416,-13 1.417,0.166 1.417,13.084 1.416,25.083 1.417,37 1.417,43.083 1.416,47.75 1.417,46.917 1.417,41.75 1.333,33.333 1.417,21 1.416,7.667 1.417,-6.75 1.417,-20.917 1.416,-31.833 1.417,-41.083 1.417,-45.834 1.416,-46.25 1.417,-43.416 1.417,-36.334 1.416,-26.416 1.417,-14.25 1.417,-2.167 1.416,10.25 1.334,20.833 1.416,28.584 1.417,34 1.417,35 1.416,32.833 1.417,27.833 1.417,19.5 1.416,10.334 1.417,-0.334 1.417,-10.416 1.416,-19 1.417,-25.834 1.417,-30.5 1.416,-32 1.417,-31 1.333,-27.5 1.417,-21.916 1.417,-15.084 1.416,-6.75 1.417,0.5 1.417,8.5 1.416,14.584 1.417,19.166 1.417,22.5 1.416,23.084 1.417,22.916 1.417,20.584 1.416,17.5 1.417,13.583 1.417,9.583 1.416,5.417 1.334,1.583 1.416,-1.333 1.417,-4 1.417,-5.833 1.416,-6.917 1.417,-7.5 1.417,-8.083 1.416,-7.584 1.417,-7.583 1.417,-6.917 1.416,-6.416 1.417,-5.917 1.417,-5.083 1.416,-4.584 1.417,-3.75 1.333,-2.916 1.417,-2 1.417,-0.834 1.416,0.25 1.417,1.25 1.417,2.5 1.416,3.084 1.417,3.666 1.417,3.834 1.416,3.416 1.417,2.834 1.417,1.666 1.416,0.584 1.417,-0.667 1.417,-2 1.416,-2.75 1.334,-3.5 1.416,-3.667 1.417,-3.5"
         style="fill:none;stroke:#000000;stroke-width:1.60000002;stroke-linecap:butt;stroke-linejoin:round;stroke-miterlimit:10;stroke-opacity:1;stroke-dasharray:none"
         id="path5338"
         inkscape:connector-curvature="0" /><path
         d="m 807.24886,734.11677 1.417,-6.5 1.416,-4.5 1.417,-2.25 1.417,0.166 1.416,2.5 1.417,4.417 1.417,5.833 1.416,6.667 1.417,6.5 1.417,5.667 1.416,4.25 1.417,2.166 1.333,-0.083 1.417,-2.417 1.417,-4.5 1.416,-6.166 1.417,-7.334 1.417,-7.583 1.416,-7.333 1.417,-6.417 1.417,-4.833 1.416,-3.084 1.417,-1 1.417,0.834 1.416,2.5 1.417,3.583 1.417,4.083 1.333,4.084 1.417,3.416 1.416,2.334 1.417,0.833 1.417,-0.667 1.416,-2.25 1.417,-3.333 1.417,-4.25 1.416,-4.583 1.417,-4.334 1.417,-3.5 1.416,-2.333 1.417,-0.833 1.417,1.083 1.416,2.833 1.417,4.5 1.333,6 1.417,7.084 1.417,7.833 1.416,8 1.417,7.75 1.417,7.167 1.416,6.166 1.417,5 1.417,3.667 1.416,2.25 1.417,1.083 1.417,-0.083 1.416,-1.083 1.417,-1.834 1.417,-2.333 1.333,-2.667 1.417,-2.833 1.416,-2.75 1.417,-2.583 1.417,-2.334 1.416,-2 1.417,-1.666 1.417,-1.334 1.416,-1 1.417,-0.75 1.417,-0.583 1.416,-0.417 1.417,-0.333 1.417,-0.25 1.416,-0.417 1.334,-0.416 1.416,-0.584 1.417,-0.666 1.417,-0.834 1.416,-1 1.417,-1.166 1.417,-1.25 1.416,-1.25 1.417,-1.334 1.417,-1.25 1.416,-1.166 1.417,-1.084 1.417,-0.916 1.416,-0.75 1.417,-0.5 1.417,-0.417 1.333,-0.167 1.417,0 1.416,0.084 1.417,0.25 1.417,0.333 1.416,0.25 1.417,0.167 1.417,-0.084 1.416,-0.333 1.417,-0.667 1.417,-1.083 1.416,-1.5 1.417,-1.833 1.417,-2.167 1.416,-2.25 1.334,-2.167 1.416,-1.916 1.417,-1.5 1.417,-0.667 1.416,0.167 1.417,1.166 1.417,2.334 1.416,3.416 1.417,4.25 1.417,5.084 1.416,5.5 1.417,5.75 1.417,5.416 1.416,4.917 1.417,4.083 1.417,3 1.333,1.75 1.417,0.584 1.416,-0.584 1.417,-1.5 1.417,-2.166 1.416,-2.584 1.417,-2.583 1.417,-2.333 1.416,-1.834 1.417,-1.083 1.417,-0.333 1.416,0.5 1.417,1 1.417,1.5 1.416,1.5 1.334,1.333 1.41604,0.833 1.417,0.084 1.417,-0.75 1.416,-1.834 1.417,-2.666 1.417,-3.5 1.416,-4 1.417,-4.167 1.417,-4.083 1.416,-3.584 1.417,-2.833 1.417,-1.917 1.416,-0.833 1.417,0.25 1.333,1.25 1.417,2 1.417,2.5 1.416,2.75 1.417,2.583 1.417,2.25 1.416,1.584 1.417,0.75 1.417,-0.084 1.416,-0.833 1.417,-1.583 1.417,-2.084 1.416,-2.333 1.417,-2.333 1.417,-2.167 1.416,-1.75 1.334,-1.25 1.416,-0.583 1.417,-0.084 1.417,0.5 1.416,0.917 1.417,1.167 1.417,1.333 1.416,1.167 1.417,1.083 1.417,0.833 1.416,0.584 1.417,0.416 1.417,0.167 1.416,0.083 1.417,0.25 1.333,0.25 1.417,0.584 1.417,0.916 1.416,1.25 1.417,1.584 1.417,1.833 1.416,2.083 1.417,2.084 1.417,2.083 1.416,1.833 1.417,1.584 1.417,1.25 1.416,0.75 1.417,0.416 1.417,-0.083 1.416,-0.333 1.334,-0.584 1.416,-0.833 1.417,-0.833 1.417,-0.834 1.416,-0.666 1.417,-0.584 1.417,-0.5 1.416,-0.25 1.417,-0.25 1.417,-0.166 1.416,-0.167 1.417,-0.333 1.417,-0.5 1.416,-0.667 1.417,-1 1.333,-1.167 1.417,-1.333 1.417,-1.5 1.416,-1.5 1.417,-1.5 1.417,-1.333 1.416,-1.167 1.417,-0.833 1.417,-0.417 1.416,-0.083 1.417,0.25 1.417,0.583 1.416,0.833 1.417,1 1.417,1 1.333,0.917 1.417,0.667 1.416,0.416 1.417,0.167 1.417,-0.333 1.416,-0.667 1.417,-1 1.417,-1.167 1.416,-1.416 1.417,-1.5 1.417,-1.417 1.416,-1.25 1.4169,-0.917 1.417,-0.666 1.416,-0.167 1.417,0.167 1.333,0.5 1.417,0.833 1.417,1.083 1.416,1.25 1.417,1.334 1.417,1.25 1.416,1.166 1.417,1 1.417,0.834 1.416,0.583 1.417,0.5 1.417,0.417 1.416,0.333 1.417,0.333 1.417,0.334 1.333,0.5 1.417,0.666 1.416,0.75 1.417,0.834 1.417,1 1.416,1 1.417,1 1.417,0.833 1.416,0.75 1.417,0.5 1.417,0.333 1.416,0.084 1.417,-0.167 1.417,-0.333 1.416,-0.584 1.334,-0.666 1.416,-0.667 1.417,-0.833 1.417,-0.75 1.416,-0.834 1.417,-0.666 1.417,-0.667 1.416,-0.667 1.417,-0.583 1.417,-0.583 1.416,-0.5 1.417,-0.584 1.417,-0.5 1.416,-0.5 1.417,-0.5 1.417,-0.5 1.333,-0.416 1.417,-0.334 1.416,-0.25 1.417,-0.166 1.417,-0.084 2.833,0 1.417,0.084 1.416,0.083 1.417,0.083"
         style="fill:none;stroke:#000000;stroke-width:1.60000002;stroke-linecap:butt;stroke-linejoin:round;stroke-miterlimit:10;stroke-opacity:1;stroke-dasharray:3.2, 1.6;stroke-dashoffset:0"
         id="path5340"
         inkscape:connector-curvature="0" /><path
         d="m 522.16586,741.19977 1.416,-0.167 1.417,-0.25 1.417,-0.333 1.416,-0.25 1.417,-0.25 1.417,-0.083 1.416,0.166 1.417,0.167 1.417,0.333 1.416,0.417 1.417,0.417 1.417,0.333 1.416,0.167 1.417,0.083 1.333,-0.25 1.417,-0.333 1.417,-0.5 1.416,-0.584 1.417,-0.5 1.417,-0.5 1.416,-0.25 1.417,-0.083 1.417,0.25 1.416,0.417 1.417,0.583 1.417,0.75 1.416,0.833 1.417,0.667 1.417,0.583 1.333,0.334 1.417,0.083 1.416,-0.333 1.417,-0.584 1.417,-0.833 1.416,-1 1.417,-1.167 1.417,-1.083 1.416,-1 1.417,-0.75 1.417,-0.417 1.416,-0.083 1.417,0.417 1.417,0.833 1.416,1.25 1.417,1.5 1.333,1.75 1.417,1.75 1.417,1.75 1.416,1.5 1.417,1.167 1.417,0.75 1.416,0.083 1.417,-0.417 1.417,-1.166 1.416,-1.667 1.417,-2.333 1.417,-2.667 1.416,-2.917 1.417,-3.083 1.417,-3 1.333,-2.75 1.417,-2.333 1.416,-1.75 1.417,-1 1.417,-0.167 1.416,0.667 1.417,1.583 1.417,2.583 1.416,3.25 1.417,4.167 1.417,4.75 1.416,5.25 1.417,5.75 1.417,5.917 1.416,7.25 1.334,6.916 1.416,5.667 1.417,7.917 1.417,6.333 1.416,4.417 1.417,3.583 1.417,1 1.416,-3.333 1.417,-7.417 1.417,-12.167 1.416,-18.166 1.417,-21.417 1.417,-26.25 1.416,-28.75 1.417,-29.25 1.417,-28.25 1.333,-24.667 1.417,-18.9998 1.416,-11.75 1.417,-2.25 1.417,7.0836 1.416,17 1.417,26.0002 1.417,31.833 1.416,37.083 1.417,38.334 1.417,37.166 1.416,31.917 1.417,25.833 1.417,17.417 1.416,7.75 1.334,-1.833 1.416,-9.834 1.417,-14.416 1.417,-19.917 1.416,-19.583 1.417,-16.75 1.417,-13.25 1.416,-7.167 1.417,0.583 1.417,7.584 1.416,13.25 1.417,19.666 1.417,20.75 1.416,21.75 1.417,19.5 1.417,14.084 1.333,8.083 1.417,-0.083 1.416,-7.917 1.417,-15.667 1.417,-22.416 1.416,-26.25 1.417,-29.417 1.417,-29.333 1.416,-26.667 1.417,-23 1.417,-16.917 1.416,-10.25 1.417,-2.5 1.417,3.75 1.416,10.084 1.334,14.916 1.416,17.417 1.417,18.917 1.417,18.166 1.416,15.417 1.417,12.083 1.417,7.334 1.416,2.416 1.417,-2.666 1.417,-7.167 1.416,-10.583 1.417,-12.834 1.417,-14.583 1.416,-14.5 1.417,-13.25 1.333,-11.833 1.417,-8.917 1.417,-6.333 1.416,-3 1.417,-0.75 1.417,2.166 1.416,3.917 1.417,4.833 1.417,5.667 1.416,5 1.417,4.833 1.417,3.5 1.416,2.5 1.417,1.5 1.417,0.917 1.416,0.583 1.334,0.584 1.416,1.25 1.417,2.083 1.417,3.25 1.416,4.417 1.417,5.75 1.417,6.583 1.416,7.667 1.417,7.916 1.417,8 1.416,7.75 1.417,7 1.417,6.25 1.416,5.167 1.417,4.25 1.333,3.083 1.417,2.5 1.417,1.834 1.416,1.5 1.417,1.083 1.417,1 1.416,0.583 1.417,0.25 1.417,-0.416 1.416,-1.417 1.417,-2.5 1.417,-3.917 1.416,-5.25 1.417,-6.833 1.417,-7.917 1.416,-8.583 1.334,-9.083 1.416,-8.917 1.417,-7.833"
         style="fill:none;stroke:#000000;stroke-width:1.60000002;stroke-linecap:butt;stroke-linejoin:round;stroke-miterlimit:10;stroke-opacity:1;stroke-dasharray:3.2, 3.2;stroke-dashoffset:0"
         id="path5342"
         inkscape:connector-curvature="0" /></g><g
       id="g6547"
       transform="matrix(0.0572912,0,0,0.0719188,296.91928,347.42037)"
       style="stroke:#000000;stroke-width:5.09626818;stroke-miterlimit:4;stroke-opacity:1;stroke-dasharray:none;display:inline"><g
         clip-path="url(#clipPath6551)"
         id="g6549"
         style="stroke:#000000;stroke-width:5.09626818;stroke-miterlimit:4;stroke-opacity:1;stroke-dasharray:none"><path
           inkscape:connector-curvature="0"
           id="path6555"
           style="fill:none;stroke:#000000;stroke-width:5.09626818;stroke-linecap:butt;stroke-linejoin:round;stroke-miterlimit:4;stroke-opacity:1;stroke-dasharray:none"
           d="m 2520,1892.5 4.17,19.17 3.33,-1142.502 4.17,906.662 4.16,231.67 4.17,-980 3.33,708.33 4.17,182.5 4.17,-836.662 4.16,669.162 3.34,86.67 4.16,-715 4.17,714.17 4.17,-111.67 4.16,-678.332 3.34,921.662 4.16,-218.33 4.17,-807.5 4.17,1005 3.33,-175.83 4.17,-756.67 4.16,928.33 4.17,-326.66 3.33,-553.338 4.17,1000.838 4.17,-580.84 4.16,-431.662 3.34,1085.832 4.16,-769.17 4.17,-255 4.17,1092.5 3.33,-995.83 4.17,-42.5 4.16,1096.67 4.17,-1135 4.17,143.33 3.33,911.67 4.17,-1131.67 4.16,452.5 4.17,539.17 3.33,-1091.67 4.17,812.5 4.17,80.83 4.16,-930.83 3.34,1136.67 4.16,-490.84 4.17,-642.498 4.17,1409.168 3.33,-1047.5 4.17,-270 4.16,1465 4.17,-1474.168 3.33,262.498 4.17,1240.84 4.17,-1785.002 4.16,853.332 4.17,857.5 3.33,-1853.332 4.17,1269.162 4.17,333.34 4.16,-1535.838 3.34,1428.338 4.16,-282.5 4.17,-920.838 4.17,1315.838 3.33,-762.5 4.17,-214.17 4.16,906.67 4.17,-932.5 3.33,377.5 4.17,352.5 4.17,-751.67 4.16,611.67 3.34,-130.84 4.16,-280 4.17,444.17 4.17,-383.33 4.16,187.5 3.34,55 4.16,-255.84 4.17,355.84 4.17,-341.67 3.33,144.17 4.17,185 4.16,-468.34 4.17,481.67 3.33,-220 4.17,-198.33 4.17,544.16 4.16,-575 3.34,216.67 4.16,282.5 4.17,-556.67 4.17,466.67 3.33,-138.33 4.17,-217.5 4.16,407.5 4.17,-352.5 3.33,119.16 4.17,107.5 4.17,-230.83 4.16,215 4.17,-115 3.33,3.33 4.17,36.67 4.17,-55.83 4.16,121.66 3.34,-175 4.16,109.17 4.17,68.33 4.17,-209.16 3.33,210 4.17,-26.67 4.16,-211.67 4.17,288.34 3.33,-66.67 4.17,-271.67 4.17,429.17 4.16,-266.67 3.34,-118.33 4.16,505.83 4.17,-638.33 4.17,391.67 4.16,104.16 3.34,-576.66 4.16,815.83 4.17,-701.67 4.17,239.17 3.33,385.83 4.17,-860.83 4.16,987.5 4.17,-729.17 3.33,181.67 4.17,468.33 4.17,-971.662 4.16,1148.332 3.34,-930.83 4.16,341.66 4.17,454.17 4.17,-1133.332 3.33,1381.662 4.17,-1100.83 4.16,410.83 4.17,415.84 4.17,-1044.17 3.33,1244.17 4.17,-1026.67 4.16,569.17 4.17,-38.34 3.33,-449.16 4.17,815.83 4.17,-1006.668 4.16,977.498 3.34,-685.83 4.16,166.67 4.17,414.16 4.17,-869.162 3.33,1070.832 4.17,-981.67 4.16,615 4.17,-100.83 3.33,-386.67 4.17,696.67 4.17,-788.33 4.16,678.33 3.34,-455 4.16,210 4.17,-8.33 4.17,-140 4.16,240 3.34,-322.5 4.16,432.5 4.17,-566.67 4.17,637.5 3.33,-540.83 4.17,231.66 4.16,230 4.17,-686.66 3.33,941.66 4.17,-882.5 4.17,551.67 4.16,-97.5 3.34,-305 4.16,537.5 4.17,-548.33 4.17,380.83 3.33,-121.67 4.17,-117.5 4.16,256.67 4.17,-247.5 4.17,115 3.33,90.83 4.17,-302.5 4.16,471.67 4.17,-542.5 3.33,483.33 4.17,-291.66 4.17,9.16 4.16,302.5 3.34,-590 4.16,815.84 4.17,-950.838 4.17,975.838 3.33,-866.67 4.17,610.83 4.16,-222.5 4.17,-256.66 3.33,746.66 L 3345,790 l 4.17,1430.83 4.16,-1502.498 4.17,1375.838 3.33,-1067.5 4.17,625.83 4.17,-119.17 4.16,-385 3.34,834.17 4.16,-1204.168 4.17,1461.668 4.17,-1568.332 3.33,1495.002 4.17,-1240.002 4.16,834.162 4.17,-344.16 3.33,-145 4.17,554.16 4.17,-841.662 4.16,980.002 3.34,-986.67 4.16,898.33 4.17,-757.5 4.17,593.34 3.33,-425.84 4.17,275.84 4.16,-145 4.17,35 4.17,46.66 3.33,-96.66 4.17,117.5 4.16,-110.84 4.17,66.67 3.33,3.33 4.17,-77.5 4.17,115.84 4.16,-91.67 3.34,-23.33 4.16,205.83 4.17,-423.33 4.17,639.16 3.33,-827.498 4.17,953.338 4.16,-992.502 4.17,953.332 3.33,-842.5 4.17,730.83 4.17,-566.66 4.16,312.5 4.17,2.5 3.33,-257.5 4.17,403.33 4.17,-498.33 4.16,606.66 3.34,-690.83 4.16,698.33 4.17,-652.5 4.17,525.84 3.33,-366.67 4.17,210.83 4.16,-111.66 4.17,55.83 3.33,-14.17 4.17,-6.66 4.17,16.66 4.16,-25 3.34,40.84 4.16,-52.5 4.17,69.16 4.17,-61.66 4.16,13.33 3.34,31.67 4.16,-69.17 4.17,84.17 4.17,-158.34 3.33,201.67 4.17,-249.17 4.16,231.67 4.17,-258.33 3.33,231.66 4.17,-252.5 4.17,230.84 4.16,-225 3.34,139.16 4.16,-70.83 4.17,-25.83 4.17,114.16 3.33,-208.33 4.17,260.83 4.16,-264.16 4.17,285 4.17,-250.84" /><path
           inkscape:connector-curvature="0"
           id="path6557"
           style="fill:none;stroke:#000000;stroke-width:5.09626818;stroke-linecap:butt;stroke-linejoin:round;stroke-miterlimit:4;stroke-opacity:1;stroke-dasharray:none"
           d="m 1333.33,1164.17 4.17,60 4.17,159.16 4.16,130 3.34,16.67 4.16,-111.67 4.17,-139.16 4.17,-74.17 3.33,71.67 4.17,170.83 4.16,180 4.17,84.17 3.33,-40 4.17,-85.84 4.17,-71.66 4.16,11.66 3.34,62.5 4.16,55.84 4.17,-15.84 4.17,-68.33 3.33,-70 4.17,-19.17 4.16,45.84 4.17,67.5 4.17,19.16 3.33,-30.83 4.17,-42.5 4.16,-21.67 4.17,30 3.33,49.17 4.17,15.83 4.17,-38.33 4.16,-35 3.34,-21.67 4.16,29.17 4.17,43.33 4.17,1.67 3.33,-70 4.17,-90 4.16,-47.5 4.17,2.5 3.33,61.67 4.17,33.33 4.17,-16.67 4.16,-65.83 4.17,-50.83 3.33,-30.84 4.17,-5.83 4.17,-3.33 4.16,-15 3.34,1.66 4.16,29.17 4.17,35 4.17,15.83 3.33,-21.66 4.17,-35.84 4.16,4.17 4.17,53.33 3.33,61.67 4.17,29.17 4.17,-20.84 4.16,-32.5 3.34,17.5 4.16,46.67 4.17,42.5 4.17,-6.67 4.16,-55.83 3.34,-45 4.16,5.83 4.17,28.34 4.17,25 3.33,-4.17 4.17,-28.33 4.16,-0.84 4.17,7.5 3.33,16.67 4.17,19.17 4.17,13.33 4.16,24.17 3.34,14.16 4.16,0 4.17,4.17 4.17,36.67 3.33,46.66 4.17,20.84 4.16,-45 4.17,-73.34 4.17,-33.33 3.33,30.83 4.17,32.5 4.16,-18.33 4.17,-58.33 3.33,-30 4.17,39.16 4.17,42.5 4.16,-9.16 3.34,-35.84 4.16,16.67 4.17,79.17 4.17,56.66 3.33,-25.83 4.17,-57.5 4.16,15 4.17,76.67 3.33,2.5 4.17,-114.17 4.17,-122.5 4.16,6.67 3.34,90.83 4.16,-9.17 4.17,-137.5 4.17,-98.33 4.16,72.5 3.34,133.33 4.16,-24.16 4.17,-141.67 4.17,-28.33 3.33,160.83 4.17,136.67 4.16,-97.5 4.17,-155 3.33,44.16 4.17,197.5 4.17,27.5 4.16,-229.16 3.34,-137.5 4.16,163.33 4.17,195 4.17,-140.83 3.33,-290.84 4.17,35 4.16,359.17 4.17,121.67 4.17,-323.34 3.33,-242.5 4.17,293.34 4.16,406.66 4.17,-139.16 3.33,-470.84 4.17,-4.16 4.17,538.33 4.16,189.17 3.34,-503.34 4.16,-419.998 4.17,404.168 4.17,554.17 3.33,-243.34 4.17,-690 4.16,22.5 4.17,755 3.33,210.84 4.17,-660.84 4.17,-435.83 4.16,595.83 4.17,599.17 3.33,-385 4.17,-708.332 4.17,203.332 4.16,757.5 3.34,-18.33 4.16,-717.5 4.17,-194.17 4.17,639.17 3.33,297.5 4.17,-495.84 4.16,-390.83 4.17,350.83 3.33,389.17 4.17,-200 4.17,-316.67 4.16,103.34 3.34,231.66 4.16,-32.5 4.17,-96.66 4.17,13.33 3.33,-60 4.17,-72.5 4.16,171.67 4.17,130.83 4.17,-299.17 3.33,-288.33 4.17,367.5 4.16,377.5 4.17,-405.83 3.33,-557.502 4.17,416.662 4.17,635.84 4.16,-365 3.34,-719.17 4.16,348.33 4.17,741.67 4.17,-294.17 3.33,-697.498 4.17,279.998 4.16,628.34 4.17,-295 3.33,-504.17 4.17,324.17 4.17,353.33 4.16,-409.17 4.17,-183.33 3.33,491.67 4.17,6.66 4.17,-607.5 4.16,177.5 3.34,699.17 4.16,-320 4.17,-770.832 4.17,499.162 3.33,795 4.17,-575.83 4.16,-755 4.17,700 3.33,640.83 4.17,-725 4.17,-478.33 4.16,734.17 3.34,241.66 4.16,-671.66 4.17,5.83 4.17,551.67 4.16,-273.34 3.34,-386.66 4.16,491.66 4.17,174.17 4.17,-635 3.33,66.67 4.17,684.16 4.16,-275.83 4.17,-600 3.33,465.83 4.17,416.67 4.17,-540 4.16,-143.33 3.34,508.33 4.16,-170 4.17,-355.83 4.17,431.66 3.33,90 4.17,-610.83 4.16,215.83 4.17,626.67 3.33,-507.5 4.17,-498.332 4.17,685.002 4.16,231.66 4.17,-692.5 3.33,65 4.17,514.17 4.17,-303.33 4.16,-196.67 3.34,364.17 4.16,-168.34 4.17,-250 4.17,409.17 3.33,-35.83 4.17,-445 4.16,334.16 4.17,196.67 3.33,-494.17 4.17,235.84 4.17,376.66 4.16,-675 3.34,55 4.16,891.67 4.17,-658.33 4.17,-713.338 4.16,1187.498 3.34,125 4.16,-1332.498 4.17,653.338 4.17,932.5 3.33,-1262.502 4.17,-57.5 4.16,1340.002 4.17,-918.34 3.33,-768.33 4.17,1537.5 4.17,-224.17 4.16,-1403.33 3.34,1155 4.16,570.83 4.17,-1458.33 4.17,552.5 3.33,930 4.17,-1290.832 4.16,164.162 4.17,1186.67 4.17,-1141.67 3.33,-304.162 4.17,1355.002 4.16,-765.84 4.17,-640.83 3.33,1241.67 4.17,-503.34 4.17,-750.83 4.16,1243.33 3.34,-345.83 4.16,-1010.832 4.17,1210.832" /><path
           inkscape:connector-curvature="0"
           id="path6559"
           style="fill:none;stroke:#000000;stroke-width:5.09626818;stroke-linecap:butt;stroke-linejoin:round;stroke-miterlimit:4;stroke-opacity:1;stroke-dasharray:none"
           d="m 535.832,1487.5 4.168,-173.33 4.168,182.5 4.164,-70.84 3.336,110.84 4.164,-8.34 4.168,90 4.168,33.34 3.332,80 4.168,30 4.164,94.16 4.168,18.34 3.332,104.16 4.168,4.17 4.168,48.33 4.164,66.67 3.336,-49.17 4.164,94.17 4.168,-125.83 4.168,100 L 615,1945 l 4.168,58.33 4.164,-165.83 4.168,-46.67 4.168,-92.5 L 635,1530 l 4.168,-22.5 4.164,-242.5 4.168,3.33 3.332,-230.83 4.168,-14.17 4.168,-154.162 4.164,-65 3.336,-36.668 4.164,-90 4.168,65.832 4.168,-95 3.332,145.836 4.168,-57.5 4.164,176.664 4.168,-0.832 3.332,162.5 4.168,49.17 4.168,129.16 4.164,68.34 4.168,74.16 3.332,34.17 4.168,36.67 4.168,-17.5 4.164,-32.5 3.336,-44.17 4.164,-95.83 4.168,-44.17 4.168,-133.33 3.332,-10 4.168,-128.338 4.164,54.168 4.168,-70.832 3.332,126.662 4.168,25 4.168,165 4.164,140.84 3.336,165.83 4.164,191.67 4.168,124.16 4.168,166.67 4.164,49.17 3.336,63.33 4.164,-50 4.168,-61.67 4.168,-135.83 3.332,-169.17 4.168,-175 4.164,-197.5 4.168,-130 3.332,-132.5 4.168,-15.83 4.168,7.5 4.164,115.83 3.336,161.67 4.164,212.5 4.168,250.83 4.168,236.67 3.332,220.83 4.168,171.67 4.164,90.83 4.168,25 3.332,-73.33 4.168,-124.17 4.168,-202.5 4.164,-231.66 4.168,-244.17 3.332,-252.5 4.168,-178.33 4.168,-187.5 4.164,-60 3.336,-71.67 4.164,58.33 4.168,27.5 4.168,128.34 3.332,88.33 4.168,127.5 4.164,104.17 4.168,58.33 3.332,57.5 4.168,-20 4.168,-10 4.164,-100 3.336,-72.5 4.164,-137.5 4.168,-95.83 4.168,-120 4.164,-74.17 3.336,-55 4.164,-16.668 4.168,21.668 4.168,37.5 3.332,69.17 4.17,62.5 4.16,73.33 4.17,55.83 3.33,66.67 4.17,41.67 4.17,59.16 4.16,33.34 3.34,55.83 4.16,17.5 4.17,20.83 4.17,-12.5 3.33,-31.66 4.17,-52.5 4.16,-67.5 4.17,-38.34 4.17,-43.33 3.33,18.33 4.17,17.5 4.16,70 4.17,40 3.33,50.84 4.17,6.66 4.17,-9.16 4.16,-21.67 3.34,-19.17 4.16,14.17 4.17,30.83 4.17,74.17 3.33,62.5 4.17,52.5 4.16,10 4.17,-31.67 3.33,-60.83 4.17,-47.5 4.17,-13.33 4.16,45.83 3.34,91.67 4.16,122.5 4.17,80.83 4.17,36.67 4.16,-53.34 3.34,-111.66 4.16,-118.34 4.17,-89.16 4.17,-15.84 3.33,32.5 4.17,79.17 4.16,28.33 4.17,-20 3.33,-120.83 4.17,-139.17 4.17,-117.5 4.16,-33.33 3.34,75.83 4.16,144.17 4.17,165 4.17,80.83 3.33,-11.66 4.17,-127.5 4.16,-134.17 4.17,-111.67 4.17,-25 3.33,45.84 4.17,60 4.16,10 4.17,-77.5 3.33,-133.34 4.17,-125 4.17,-38.33 4.16,67.5 3.34,150.83 4.16,143.34 4.17,69.16 4.17,-22.5 3.33,-55 4.17,-25 4.16,72.5 4.17,143.34 3.33,150 4.17,44.16 4.17,-103.33 4.16,-206.67 4.17,-200 3.33,-84.16" /></g></g><g
       id="g6946"
       transform="matrix(0.06044157,0,0,0.05186444,287.94099,524.45956)"
       style="stroke:#000000;stroke-width:5.24970627;stroke-miterlimit:4;stroke-opacity:1;stroke-dasharray:none;display:inline"><g
         clip-path="url(#clipPath6950)"
         id="g6948"
         style="stroke:#000000;stroke-width:5.24970627;stroke-miterlimit:4;stroke-opacity:1;stroke-dasharray:none"><path
           inkscape:connector-curvature="0"
           id="path6954"
           style="fill:none;stroke:#000000;stroke-width:5.24970627;stroke-linecap:butt;stroke-linejoin:round;stroke-miterlimit:4;stroke-opacity:1;stroke-dasharray:none"
           d="m 2520,2231.67 4.17,-1462.502 3.33,835.832 4.17,814.17 4.16,-1474.17 4.17,350.83 3.33,1195.84 4.17,-1314.17 4.17,-128.33 4.16,1420 3.34,-1045.84 4.16,-549.162 4.17,1509.162 4.17,-730.83 4.16,-885 3.34,1494.17 4.16,-414.17 4.17,-1131.668 4.17,1414.168 3.33,-126.67 4.17,-1301.662 4.16,1304.162 4.17,113.34 3.33,-1408.338 4.17,1190.838 4.17,298.33 4.16,-1471.668 3.34,1094.168 4.16,428.33 L 2635,745 l 4.17,1027.5 3.33,505.83 4.17,-1523.33 4.16,998.33 4.17,530.84 4.17,-1530.002 3.33,1011.662 4.17,503.34 4.16,-1525.838 4.17,1065.838 3.33,422.5 4.17,-1505.002 4.17,1155.002 4.16,285.83 3.34,-1458.332 4.16,1271.662 4.17,90.84 4.17,-1370.002 3.33,1400.002 4.17,-162.5 4.16,-1220.002 4.17,1513.332 3.33,-466.67 4.17,-989.162 4.17,1581.662 4.16,-804.16 4.17,-664.17 3.33,1565 4.17,-1140.83 4.17,-241.67 4.16,1421.67 3.34,-1424.17 4.16,257.5 4.17,1117.5 4.17,-1588.332 3.33,785.002 4.17,642.5 4.16,-1560.838 4.17,1255.838 3.33,24.16 4.17,-1284.162 4.17,1560.832 4.16,-654.17 3.34,-743.33 4.16,1585 4.17,-1252.5 4.17,1.67 4.16,1248.33 3.34,-1595.832 4.16,800.832 4.17,561.67 4.17,-1527.502 3.33,1425.832 4.17,-338.33 4.16,-979.17 4.17,1629.17 3.33,-1180 4.17,-56.67 4.17,1253.33 4.16,-1624.998 3.34,939.168 4.16,350.83 4.17,-1414.162 4.17,1580.002 3.33,-754.17 4.17,-539.168 4.16,1497.498 4.17,-1539.998 3.33,651.668 4.17,625 4.17,-1528.332 4.16,1530.832 4.17,-641.67 3.33,-614.998 4.17,1517.498 4.17,-1559.162 4.16,726.662 3.34,506.67 4.16,-1458.332 4.17,1615.002 4.17,-900.84 3.33,-291.66 4.17,1326.66 4.16,-1665.83 4.17,1141.67 3.33,-34.17 4.17,-1087.5 4.17,1660 4.16,-1406.67 3.34,463.34 4.16,702.5 L 3000,705 l 4.17,1621.67 4.16,-953.34 3.34,-156.66 4.16,1190.83 4.17,-1679.168 4.17,1409.168 3.33,-511.67 4.17,-608.33 4.16,1459.17 4.17,-1677.502 3.33,1180.002 4.17,-187.5 4.17,-880.002 4.16,1580.832 3.34,-1635.832 4.16,1033.332 4.17,-21.67 4.17,-994.162 3.33,1620.002 4.17,-1622.502 4.16,1010.002 4.17,-21.67 4.17,-970 3.33,1602.5 4.17,-1655 4.16,1117.5 4.17,-189.17 3.33,-799.998 4.17,1510.838 4.17,-1707.502 4.16,1332.502 3.34,-519.17 4.16,-458.33 4.17,1283.33 4.17,-1698.332 3.33,1580.002 4.17,-975 4.16,76.66 4.17,840.84 3.33,-1504.17 4.17,1725 4.17,-1448.33 4.16,761.66 3.34,134.17 4.16,-988.332 4.17,1568.332 4.17,-1725 4.16,1425.83 3.34,-757.5 4.16,-100.83 4.17,928.33 4.17,-1519.998 3.33,1736.668 4.17,-1533.332 4.16,967.502 4.17,-179.17 3.33,-645.83 4.17,1319.16 4.17,-1694.162 4.16,1695.002 3.34,-1330.84 4.16,687.5 4.17,94.17 4.17,-851.668 3.33,1432.498 4.17,-1724.998 4.16,1679.998 4.17,-1313.33 4.17,702.5 3.33,32.5 4.17,-755.83 4.16,1340 4.17,-1685.002 3.33,1737.502 4.17,-1496.67 4.17,1010 4.16,-364.17 3.34,-334.16 4.16,975 4.17,-1460.838 4.17,1723.338 3.33,-1730.002 4.17,1486.662 4.16,-1035.83 4.17,445.83 3.33,199.17 4.17,-810.83 4.17,1311.66 4.16,-1641.662 4.17,1764.162 3.33,-1670.83 4.17,1379.17 4.17,-930 4.16,380 3.34,205.83 4.16,-763.33 4.17,1234.16 4.17,-1571.662 3.33,1747.502 4.17,-1749.17 4.16,1581.67 4.17,-1268.34 3.33,843.34 4.17,-347.5 4.17,-172.5 4.16,670.83 3.34,-1107.5 4.16,1450.83 4.17,-1676.662 4.17,1772.502 L 3440,755 l 4.17,1576.67 4.16,-1310 4.17,959.16 4.17,-550.83 3.33,113.33 4.17,325 4.16,-736.66 4.17,1100 3.33,-1396.67 4.17,1612.5 4.17,-1741.668 4.16,1780.838 3.34,-1732.502 4.16,1604.162 4.17,-1404.998 4.17,1148.338 3.33,-848.34 4.17,519.17 4.16,-176.67 4.17,-165.83 3.33,495.83 4.17,-801.66 4.17,1075.83 4.16,-1310 4.17,1499.17 3.33,-1640.838 4.17,1734.168 4.17,-1780.832 4.16,1781.662 3.34,-1739.998 4.16,1659.998 4.17,-1546.662 4.17,1405.002 3.33,-1240 4.17,1057.5 4.16,-862.5 4.17,660 3.33,-453.34 4.17,246.67 4.17,-44.17 4.16,-152.5 3.34,340.84 4.16,-518.34 4.17,683.34 4.17,-835.84 4.16,975.84 3.34,-1101.67 4.16,890.83 4.17,-617.5 4.17,605 3.33,-581.66 4.17,549.16 4.16,-510 4.17,466.67 3.33,-420 4.17,370.83 4.17,-321.66 4.16,274.16 3.34,-229.16 4.16,186.66 4.17,-146.66 4.17,111.66 3.33,-80.83 4.17,54.17 4.16,-33.34 4.17,17.5 4.17,-6.66" /><path
           inkscape:connector-curvature="0"
           id="path6956"
           style="fill:none;stroke:#000000;stroke-width:5.24970627;stroke-linecap:butt;stroke-linejoin:round;stroke-miterlimit:4;stroke-opacity:1;stroke-dasharray:none"
           d="m 1333.33,965.832 4.17,639.168 4.17,637.5 4.16,250.83 3.34,-293.33 4.16,-665 4.17,-628.332 4.17,-197.5 3.33,363.332 4.17,700 4.16,590 4.17,95.83 3.33,-467.5 4.17,-729.16 4.17,-507.502 4.16,58.332 3.34,591.67 4.16,725.83 4.17,361.67 4.17,-260 3.33,-705.84 4.17,-656.662 4.16,-138.336 4.17,485.838 4.17,764.16 3.33,486.67 4.17,-154.17 4.16,-687.5 4.17,-709.998 3.33,-196.664 4.17,473.332 4.17,786.67 4.16,493.33 3.34,-188.33 4.16,-730 4.17,-697.502 4.17,-105.836 3.33,576.668 4.17,798.33 4.16,368.34 4.17,-370.84 3.33,-809.16 4.17,-573.338 4.17,149.168 4.16,751.67 4.17,716.66 3.33,60.84 4.17,-653.34 4.17,-802.498 4.16,-244.164 3.34,537.502 4.16,845 4.17,392.5 4.17,-422.5 3.33,-856.67 4.17,-505.832 4.16,319.162 4.17,853.34 3.33,587.5 4.17,-237.5 4.17,-845 4.16,-643.338 3.34,183.336 4.16,839.162 4.17,675.84 4.17,-157.5 4.16,-841.67 3.34,-687.5 4.16,162.5 4.17,855 4.17,678.33 3.33,-200 4.17,-877.5 4.16,-644.998 4.17,267.5 3.33,905.838 4.17,583.33 4.17,-365.83 4.16,-929.17 3.34,-488.332 4.16,490.832 4.17,937.5 4.17,350 3.33,-632.5 4.17,-913.332 4.16,-166.668 4.17,775.83 4.17,840 3.33,-61.66 4.17,-898.34 4.16,-696.662 4.17,322.502 3.33,969.16 4.17,473.34 4.17,-591.67 4.16,-955 3.34,-168.332 4.16,828.332 4.17,821.67 4.17,-195 3.33,-978.34 4.17,-551.662 4.16,568.332 4.17,980.83 3.33,156.67 4.17,-872.5 4.17,-794.168 4.16,308.338 3.34,1018.33 4.16,409.17 4.17,-740 4.17,-924.17 4.16,114.168 3.34,1007.502 4.16,558.33 4.17,-645 4.17,-983.332 3.33,13.332 4.17,999.17 4.16,617.5 4.17,-620.84 3.33,-1004.162 4.17,13.332 4.17,1019.17 4.16,590.83 3.34,-678.33 4.16,-988.338 4.17,119.168 4.17,1060.83 3.33,470.84 4.17,-810 4.16,-911.67 4.17,329.17 4.17,1090 3.33,233.33 4.17,-977.5 4.16,-726.668 4.17,624.168 3.33,1035 4.17,-130.83 4.17,-1103.34 4.16,-379.998 3.34,935.838 4.16,802.5 4.17,-586.67 4.17,-1062.5 3.33,138.332 4.17,1125.838 4.16,323.33 4.17,-1001.67 3.33,-721.662 4.17,728.332 4.17,1001.67 4.16,-360 4.17,-1137.502 3.33,-44.168 4.17,1128.33 4.17,429.17 4.16,-991.67 3.34,-754.162 4.16,757.502 4.17,993.33 4.17,-461.67 3.33,-1134.162 4.17,139.164 4.16,1178.338 4.17,179.16 3.33,-1136.66 4.17,-470.002 4.17,1025.832 4.16,718.33 3.34,-865 4.16,-914.998 4.17,670.838 4.17,1060 3.33,-462.5 4.17,-1153.338 4.16,250.838 4.17,1203.33 4.17,-48.33 3.33,-1216.67 4.17,-137.5 4.16,1201.67 4.17,304.16 3.33,-1168.33 4.17,-447.5 4.17,1122.5 4.16,568.33 3.34,-1071.66 4.16,-667.502 4.17,1020.832 4.17,746.67 3.33,-975 4.17,-807.502 4.16,937.502 4.17,851.66 3.33,-910.83 4.17,-880.832 4.17,898.332 4.16,894.17 4.17,-898.34 3.33,-894.162 4.17,911.662 4.17,880 4.16,-939.16 3.34,-850.002 4.16,980.002 4.17,802.5 4.17,-1030.84 3.33,-736.662 4.17,1090.002 4.16,649.16 4.17,-1152.5 3.33,-538.33 4.17,1213.33 4.17,402.5 4.16,-1266.66 3.34,-239.17 4.16,1303.33 4.17,50.84 4.17,-1315.838 4.16,160.838 3.34,1293.33 4.16,-390.83 4.17,-1225.002 4.17,627.502 3.33,1103.33 4.17,-859.17 4.16,-920.83 4.17,1067.5 3.33,676.67 4.17,-1232.5 4.17,-374.17 4.16,1331.67 3.34,25.83 4.16,-1343.332 4.17,348.332 4.17,1247.5 3.33,-715.83 4.17,-1035.002 4.16,1038.332 4.17,707.5 3.33,-1270 4.17,-287.5 4.17,1371.67 4.16,-190 4.17,-1307.502 3.33,665.832 4.17,1064.17 4.17,-1070.84 4.16,-652.498 3.34,1330.838 4.16,118.33 4.17,-1382.5 4.17,458.33 3.33,1190.84 4.17,-975 4.16,-763.338 4.17,1319.168 3.33,164.17 4.17,-1398.338 4.17,494.168 4.16,1165 3.34,-1062.5 4.16,-641.668 4.17,1385.838 4.17,-62.5 4.16,-1356.67 3.34,774.17 4.16,947.5 4.17,-1286.67 4.17,-245 3.33,1425 4.17,-555.83 4.16,-1110.838 4.17,1198.338 3.33,411.66 4.17,-1444.162 4.17,453.332 4.16,1171.67 3.34,-1175 4.16,-441.67 4.17,1454.17 4.17,-484.17 3.33,-1144.168 4.17,1230.838 4.16,335 4.17,-1456.67 4.17,646.67 3.33,1017.5 4.17,-1348.34 4.16,-79.16 4.17,1405.83 3.33,-920 4.17,-746.668 4.17,1462.498 4.16,-325 3.34,-1224.162 4.16,1240.832 4.17,289.17" /><path
           inkscape:connector-curvature="0"
           id="path6958"
           style="fill:none;stroke:#000000;stroke-width:5.24970627;stroke-linecap:butt;stroke-linejoin:round;stroke-miterlimit:4;stroke-opacity:1;stroke-dasharray:none"
           d="m 535.832,1599.17 4.168,4.16 4.168,6.67 4.164,9.17 3.336,11.66 4.164,15 4.168,16.67 4.168,18.33 3.332,20.84 4.168,22.5 4.164,24.16 4.168,25 3.332,25 4.168,25.84 4.168,24.16 4.164,23.34 3.336,20.83 4.164,17.5 4.168,13.33 4.168,8.34 3.332,1.66 4.168,-5.83 4.164,-14.17 4.168,-23.33 4.168,-32.5 3.332,-43.33 4.168,-54.17 4.164,-65 4.168,-74.17 3.332,-83.33 4.168,-91.67 4.168,-97.5 4.164,-100.83 3.336,-100.83 4.164,-99.17 4.168,-93.332 4.168,-83.336 3.332,-70.832 4.168,-53.332 4.164,-33.336 4.168,-11.664 3.332,11.664 4.168,35 4.168,58.336 4.164,83.332 4.168,105.832 3.332,128.338 4.168,145.83 4.168,160 4.164,170 3.336,172.5 4.164,170 4.168,159.17 4.168,140.83 3.332,115.83 4.168,83.34 4.164,45 4.168,3.33 3.332,-42.5 4.168,-86.67 4.168,-129.16 4.164,-167.5 3.336,-195.84 4.164,-215.83 4.168,-222.5 4.168,-215 4.164,-193.33 3.336,-157.502 L 805.832,755 810,704.168 l 4.168,15 3.332,80.832 4.168,145 4.164,198.33 4.168,238.34 3.332,260 4.168,260 4.168,235.83 4.164,189.17 3.336,124.16 4.164,43.34 4.168,-45 4.168,-130.84 3.332,-206.66 4.168,-264.17 4.164,-293.33 4.168,-292.5 3.332,-257.5 4.168,-191.67 4.168,-100 4.164,6.668 4.168,115.832 3.332,214.17 4.168,286.66 4.168,325 4.164,320 3.336,270 4.164,180.84 4.168,62.5 4.168,-69.17 3.332,-193.33 4.168,-292.5 4.164,-348.34 4.168,-350 3.332,-295.83 4.168,-190.832 4.168,-50 4.164,102.5 3.336,242.502 4.164,341.66 4.168,381.67 4.168,353.33 4.164,257.5 3.336,109.17 4.164,-64.17 4.168,-228.33 4.168,-352.5 3.332,-405 4.17,-376.67 4.16,-266.662 4.17,-97.5 3.33,98.332 4.17,276.67 4.17,396.66 4.16,428.34 3.34,360 4.16,205.83 4.17,-2.5 4.17,-214.17 3.33,-377.5 4.17,-450 4.16,-408.33 4.17,-260 4.17,-39.168 3.33,195.836 4.17,384.162 4.16,470 4.17,425.84 3.33,260.83 4.17,15.83 4.17,-236.66 4.16,-426.67 3.34,-490.83 4.16,-407.502 4.17,-197.5 4.17,79.164 3.33,335.838 4.17,489.16 4.16,488.34 4.17,325 3.33,50 4.17,-246.67 4.17,-464.17 4.16,-525 3.34,-403.33 4.16,-134.168 4.17,186.668 4.17,445.83 4.16,545.84 3.34,442.5 4.16,170 4.17,-172.5 4.17,-453.34 3.33,-562.5 4.17,-449.162 4.16,-153.336 4.17,208.336 3.33,492.502 4.17,575 4.17,417.5 4.16,80 3.34,-298.34 4.16,-552.5 4.17,-567.5 4.17,-329.998 3.33,60 4.17,428.338 4.16,605.83 4.17,504.17 4.17,164.16 3.33,-259.16 4.17,-565 4.16,-600.84 4.17,-342.498 3.33,89.168 4.17,483.33 4.17,638.34 4.16,469.16 3.34,55 4.16,-394.16 4.17,-640.84 4.17,-551.662 3.33,-162.5 4.17,319.162 4.16,632.5 4.17,600.84 3.33,231.66 4.17,-273.33 4.17,-629.17 4.16,-627.498 4.17,-261.664 3.33,264.164" /></g></g><path
       style="fill:none;stroke:#000000;stroke-width:0.57599998px;stroke-linecap:butt;stroke-linejoin:miter;stroke-opacity:1;marker-end:url(#Arrow1Lend);display:inline"
       d="M 281.8441,594.91313 322.71665,462.91492"
       id="path7101"
       inkscape:connector-curvature="0" /><path
       style="fill:none;stroke:#000000;stroke-width:0.57599998px;stroke-linecap:butt;stroke-linejoin:miter;stroke-opacity:1;marker-start:none;marker-end:url(#Arrow1Lend);display:inline"
       d="M 319.36644,621.04481 289.8846,619.03464"
       id="path7103"
       inkscape:connector-curvature="0" /><text
       xml:space="preserve"
       style="font-size:10.36800003px;font-style:normal;font-weight:normal;line-height:125%;letter-spacing:0px;word-spacing:0px;fill:#000000;fill-opacity:1;stroke:none;display:inline;font-family:Sans"
       x="100.26274"
       y="-289.177"
       id="text7911"
       sodipodi:linespacing="125%"
       transform="scale(1,-1)"><tspan
         sodipodi:role="line"
         id="tspan7913"
         x="100.26274"
         y="-289.177">FIG. 1</tspan></text>
<text
       xml:space="preserve"
       style="font-size:10.36800003px;font-style:normal;font-weight:normal;line-height:125%;letter-spacing:0px;word-spacing:0px;fill:#000000;fill-opacity:1;stroke:none;display:inline;font-family:Sans"
       x="227.00157"
       y="-289.177"
       id="text7911-7"
       sodipodi:linespacing="125%"
       transform="scale(1,-1)"><tspan
         sodipodi:role="line"
         id="tspan7913-5"
         x="227.00157"
         y="-289.177">FIG. 2</tspan></text>
<text
       xml:space="preserve"
       style="font-size:10.36800003px;font-style:normal;font-weight:normal;line-height:125%;letter-spacing:0px;word-spacing:0px;fill:#000000;fill-opacity:1;stroke:none;display:inline;font-family:Sans"
       x="100.26274"
       y="-147.77954"
       id="text7911-7-9"
       sodipodi:linespacing="125%"
       transform="scale(1,-1)"><tspan
         sodipodi:role="line"
         id="tspan7913-5-2"
         x="100.26274"
         y="-147.77954">FIG. 5</tspan></text>
<text
       xml:space="preserve"
       style="font-size:10.36800003px;font-style:normal;font-weight:normal;line-height:125%;letter-spacing:0px;word-spacing:0px;fill:#000000;fill-opacity:1;stroke:none;display:inline;font-family:Sans"
       x="324.95706"
       y="-543.85553"
       id="text7911-7-9-4"
       sodipodi:linespacing="125%"
       transform="scale(1,-1)"><tspan
         sodipodi:role="line"
         id="tspan7913-5-2-4"
         x="324.95706"
         y="-543.85553">FIG. 3</tspan></text>
<text
       xml:space="preserve"
       style="font-size:10.36800003px;font-style:normal;font-weight:normal;line-height:125%;letter-spacing:0px;word-spacing:0px;fill:#000000;fill-opacity:1;stroke:none;display:inline;font-family:Sans"
       x="324.95706"
       y="-378.12122"
       id="text7911-7-9-2"
       sodipodi:linespacing="125%"
       transform="scale(1,-1)"><tspan
         sodipodi:role="line"
         id="tspan7913-5-2-6"
         x="324.95706"
         y="-378.12122">FIG. 4</tspan></text>
</g></svg>