<?xml version="1.0" encoding="UTF-8" standalone="no"?>
<!-- Created with Inkscape (http://www.inkscape.org/) -->

<svg
   xmlns:dc="http://purl.org/dc/elements/1.1/"
   xmlns:cc="http://creativecommons.org/ns#"
   xmlns:rdf="http://www.w3.org/1999/02/22-rdf-syntax-ns#"
   xmlns:svg="http://www.w3.org/2000/svg"
   xmlns="http://www.w3.org/2000/svg"
   xmlns:sodipodi="http://sodipodi.sourceforge.net/DTD/sodipodi-0.dtd"
   xmlns:inkscape="http://www.inkscape.org/namespaces/inkscape"
   id="svg2"
   version="1.1"
   inkscape:version="0.48.2 r9819"
   width="765"
   height="990"
   xml:space="preserve"
   sodipodi:docname="patent.pdf"><metadata
     id="metadata8"><rdf:RDF><cc:Work
         rdf:about=""><dc:format>image/svg+xml</dc:format><dc:type
           rdf:resource="http://purl.org/dc/dcmitype/StillImage" /><dc:title></dc:title></cc:Work></rdf:RDF></metadata><defs
     id="defs6" /><sodipodi:namedview
     pagecolor="#ffffff"
     bordercolor="#666666"
     borderopacity="1"
     objecttolerance="10"
     gridtolerance="10"
     guidetolerance="10"
     inkscape:pageopacity="0"
     inkscape:pageshadow="2"
     inkscape:window-width="1920"
     inkscape:window-height="1001"
     id="namedview4"
     showgrid="false"
     units="cm"
     inkscape:zoom="0.95353535"
     inkscape:cx="870.38147"
     inkscape:cy="566.73315"
     inkscape:window-x="0"
     inkscape:window-y="30"
     inkscape:window-maximized="1"
     inkscape:current-layer="g10" /><g
     id="g10"
     inkscape:groupmode="layer"
     inkscape:label="patent"
     transform="matrix(1.25,0,0,-1.25,0,990.00072)"><g
       id="g14"><text
         id="text16"
         transform="matrix(1,0,0,-1,126,764.88)"><tspan
           id="tspan18"
           sodipodi:role="line"
           y="0"
           x="0 6.9601798 10.320189 13.680196 17.040205 25.200083 31.200094 38.160114 42.120125 47.640217 53.520306 58.800327 64.800323 68.160347 71.520355 77.52037 83.520378"
           style="font-size:11.9552002px;font-variant:normal;font-weight:normal;writing-mode:lr-tb;fill:#000000;fill-opacity:1;fill-rule:nonzero;stroke:none;font-family:Times New Roman;-inkscape-font-specification:Times-Roman">TitleofInvention:  Digital aerophones and dynamic impulse response systems</tspan><tspan
           id="tspan20"
           sodipodi:role="line"
           y="14.4"
           x="0 8.640028 13.920036 23.280056 31.560085 37.560097 44.520115 48.480129 54.000217 59.88031 65.160332 71.160332 74.520348 80.520363 84.480377"
           style="font-size:11.9552002px;font-variant:normal;font-weight:normal;writing-mode:lr-tb;fill:#000000;fill-opacity:1;fill-rule:nonzero;stroke:none;font-family:Times New Roman;-inkscape-font-specification:Times-Roman">NameofInventor:  Vladimir Vassilev</tspan><tspan
           id="tspan22"
           sodipodi:role="line"
           style="font-size:11.9552002px;font-variant:normal;font-weight:normal;writing-mode:lr-tb;fill:#000000;fill-opacity:1;fill-rule:nonzero;stroke:none;font-family:Times New Roman;-inkscape-font-specification:Times-Roman"
           x="0"
           y="-2.0664658e+11" /></text>
</g><g
       transform="matrix(0.6,0,0,-57.72,539.988,752.028)"
       id="g24"><rect
         id="rect26"
         style="fill:#000000;fill-opacity:1;fill-rule:nonzero"
         transform="matrix(1,0,0,-1,0,1)"
         height="1"
         width="1"
         y="0"
         x="0" /></g><g
       transform="matrix(57.72,0,0,-0.6,511.668,723.708)"
       id="g28"><rect
         id="rect30"
         style="fill:#000000;fill-opacity:1;fill-rule:nonzero"
         transform="matrix(1,0,0,-1,0,1)"
         height="1"
         width="1"
         y="0"
         x="0" /></g><g
       id="g32"
       transform="translate(0,-9.6)"><text
         id="text34"
         transform="matrix(1,0,0,-1,291,705.84)"><tspan
           id="tspan36"
           sodipodi:role="line"
           y="0"
           x="0 9.0000181"
           style="font-size:11.9552002px;font-variant:normal;font-weight:normal;writing-mode:lr-tb;fill:#000000;fill-opacity:1;fill-rule:nonzero;stroke:none;font-family:Times New Roman;-inkscape-font-specification:Times-Roman">1— 2</tspan></text>
</g><g
       transform="matrix(0.6,0,0,-57.72,71.988,96.4681)"
       id="g38"><rect
         id="rect40"
         style="fill:#000000;fill-opacity:1;fill-rule:nonzero"
         transform="matrix(1,0,0,-1,0,1)"
         height="1"
         width="1"
         y="0"
         x="0" /></g><g
       transform="matrix(57.72,0,0,-0.6,43.668,68.1481)"
       id="g42"><rect
         id="rect44"
         style="fill:#000000;fill-opacity:1;fill-rule:nonzero"
         transform="matrix(1,0,0,-1,0,1)"
         height="1"
         width="1"
         y="0"
         x="0" /></g></g></svg>